<svg id="Capa_1" data-name="Capa 1" xmlns="http://www.w3.org/2000/svg" viewBox="0 0 400 100"><defs><style>.cls-1{fill:#1befcb;}.cls-2{fill:#fff;}</style></defs><path class="cls-1" d="M302.42,30.47h23a12.82,12.82,0,0,1,5.73,1.26,9.89,9.89,0,0,1,4,3.51,9.91,9.91,0,0,1-.38,10.93,9.46,9.46,0,0,1-4.71,3.36v.24a9.07,9.07,0,0,1,5.53,3.3,9.77,9.77,0,0,1,2.13,6.29q0,5.43-3.48,8.33a13.38,13.38,0,0,1-8.86,2.9h-23Zm20.59,16a5.12,5.12,0,0,0,3.62-1.2,4,4,0,0,0,1.29-3.07,4.12,4.12,0,0,0-4.5-4.56H311v8.83Zm1,16.9a5.16,5.16,0,0,0,3.63-1.28,4.78,4.78,0,0,0,1.4-3.69,4.67,4.67,0,0,0-1.4-3.51,5.75,5.75,0,0,0-4.1-1.34H311v9.82Z"/><path class="cls-1" d="M356.68,30.47h10.64L383,70.59h-9.24l-2.87-7.66H352.65l-2.87,7.66H341ZM368.2,55.85l-3.8-10.18c-.31-.81-.76-2.18-1.35-4.09s-1-3.18-1.16-3.8h-.3l-1.17,3.8c-.58,1.91-1,3.28-1.34,4.09l-3.8,10.18Z"/><path class="cls-2" d="M88,44.6q3-4.07,7.31-4.06H97a8.72,8.72,0,0,1,8.71,8.7V70.78H94.19V52.2a3.57,3.57,0,0,0-.9-2.46,2.83,2.83,0,0,0-4.35,0A3.57,3.57,0,0,0,88,52.2V70.78H76.55V29H88Z"/><path class="cls-2" d="M17.8,70.78V31H47.7l-1.16,9.17H29.76v5.8H45.9v8.88H29.76v6.45H46.54l1.16,9.52Z"/><path class="cls-2" d="M68.71,64.33a9.38,9.38,0,0,0,3.6-.69v6.5a20.43,20.43,0,0,1-7.78,1.28q-7.72,0-9.87-4.24a9.15,9.15,0,0,1-.75-4V49.36H50.66V41.12h3.71l4-9.47h7v9.47h7v8.24h-7v11c0,2.24.7,3.52,2.09,3.83A4.09,4.09,0,0,0,68.71,64.33Z"/><path class="cls-2" d="M110,56.85v-1.8q0-6.79,4.47-10.74,4.24-3.78,11.38-3.77h1.45q6.74,0,10.62,3.77a12.84,12.84,0,0,1,3.72,9.58v3.59H122.29v2.79a3.62,3.62,0,0,0,1.3,3,5.17,5.17,0,0,0,3.28,1,3.66,3.66,0,0,0,3-1.27,5.24,5.24,0,0,0,1.05-3.43h10.62A10.54,10.54,0,0,1,137.79,68q-4,3.38-10.68,3.37h-.87q-7.14,0-11.56-3.77A13.4,13.4,0,0,1,110,56.85Zm12.31-4.42h8v-.81a4,4,0,0,0-1.16-2.87,4,4,0,0,0-5.69,0,3.93,3.93,0,0,0-1.16,2.87Z"/><path class="cls-2" d="M146.2,70.78V41.12h8.59l1.28,4.29a9.46,9.46,0,0,1,4.65-4.24,7.63,7.63,0,0,1,3.19-.63,7.34,7.34,0,0,1,8.07,8v1c0,.62,0,1.36-.12,2.21l-.12,1.45h-9.4V51.74a3.06,3.06,0,0,0-.72-2.06,2.22,2.22,0,0,0-1.72-.84,2.27,2.27,0,0,0-1.77.84,3.06,3.06,0,0,0-.72,2.06v19Z"/><path class="cls-2" d="M174.24,56.85v-1.8q0-6.79,4.47-10.74,4.23-3.78,11.38-3.77h1.45q6.74,0,10.62,3.77a12.84,12.84,0,0,1,3.72,9.58v3.59H186.55v2.79a3.62,3.62,0,0,0,1.3,3,5.17,5.17,0,0,0,3.28,1,3.68,3.68,0,0,0,3-1.27,5.24,5.24,0,0,0,1-3.43h10.62A10.54,10.54,0,0,1,202.05,68q-4,3.38-10.69,3.37h-.87q-7.14,0-11.55-3.77A13.4,13.4,0,0,1,174.24,56.85Zm12.31-4.42h8v-.81a4,4,0,0,0-1.16-2.87,4,4,0,0,0-5.69,0,3.93,3.93,0,0,0-1.16,2.87Z"/><path class="cls-2" d="M243.2,70a11,11,0,0,1-5.92,1.34,10.69,10.69,0,0,1-5.75-1.25,6.82,6.82,0,0,1-2.72-3.45,11.51,11.51,0,0,1-5.34,4.12,7.37,7.37,0,0,1-2.91.58h-1.62a8.72,8.72,0,0,1-8.71-8.71V41.12h11.49V59.69a3.6,3.6,0,0,0,.9,2.47,2.86,2.86,0,0,0,4.36,0,3.6,3.6,0,0,0,.9-2.47V41.12h11.49V62.19a1.87,1.87,0,0,0,2,2.14,4.21,4.21,0,0,0,1.86-.52Z"/><path class="cls-2" d="M256.73,45.41q3.64-4.87,8-4.87h1.56a8.32,8.32,0,0,1,4.5,1.24,8.81,8.81,0,0,1,3.11,3.28,9.27,9.27,0,0,1,3.16-3.28,8.37,8.37,0,0,1,4.5-1.24h1.57a8.71,8.71,0,0,1,8.7,8.7V70.78H280.58V52a3.26,3.26,0,0,0-.81-2.32,2.68,2.68,0,0,0-3.95,0A3.26,3.26,0,0,0,275,52V70.78H263.75V52a3.26,3.26,0,0,0-.81-2.32,2.68,2.68,0,0,0-3.95,0,3.26,3.26,0,0,0-.81,2.32V70.78H246.92V41.12h8.59Z"/></svg>