<?xml version="1.0" encoding="UTF-8" standalone="no"?>
<svg
   xmlns:dc="http://purl.org/dc/elements/1.1/"
   xmlns:cc="http://creativecommons.org/ns#"
   xmlns:rdf="http://www.w3.org/1999/02/22-rdf-syntax-ns#"
   xmlns:svg="http://www.w3.org/2000/svg"
   xmlns="http://www.w3.org/2000/svg"
   viewBox="0 0 880 213.33333"
   width="5573.111px" 
   height="1990.154px"
   xml:space="preserve"
   id="svg2"
   version="1.1"><metadata
     id="metadata8"><rdf:RDF><cc:Work
         rdf:about=""><dc:format>image/svg+xml</dc:format><dc:type
           rdf:resource="http://purl.org/dc/dcmitype/StillImage" /></cc:Work></rdf:RDF></metadata><defs
     id="defs6"><clipPath
       id="clipPath20"
       clipPathUnits="userSpaceOnUse"><path
         id="path18"
         d="M 0,0 H 6600 V 1600 H 0 Z" /></clipPath><clipPath
       id="clipPath26"
       clipPathUnits="userSpaceOnUse"><path
         style="clip-rule:evenodd"
         id="path24"
         d="M -205,1805 H 6805 V -205 H -205 Z M 6218.49,1605 H 381.719 c -12.239,0 -17.653,0 -24.43,-0.02 -6.996,-0.01 -13.332,-0.03 -19.426,-0.06 -3.578,-0.02 -7.293,-0.06 -11.332,-0.11 -4.832,-0.06 -8.433,-0.12 -17.531,-0.27 -3.98,-0.06 -5.723,-0.09 -7.977,-0.13 -31.796,-0.78 -56.945,-2.83 -81.027,-7.14 -27.754,-4.86 -53.058,-13.15 -77.484,-25.55 -24.438,-12.5 -46.7581,-28.74 -66.0745,-48.07 -19.3906,-19.17 -35.625,-41.52 -48.0977,-66.12 C 15.9922,1433.4 7.74609,1408.07 2.85156,1380 c -4.36719,-23.96 -6.42969,-48.93 -7.24609,-80.81 -0.16406,-5.45 -0.26953,-11.04 -0.36719,-18.48 -0.02344,-1.82 -0.04297,-3.28 -0.08203,-6.55 -0.07031,-5.93 -0.10156,-8.57 -0.15625,-11.85 0,-21.84 0,-21.84 0,-43.76 V 381.406 c 0,-17.574 0,-17.574 0,-34.949 0,-4.398 0,-4.398 0,-8.801 0.05469,-3.394 0.08594,-5.961 0.15625,-11.972 0.03906,-3.219 0.05859,-4.641 0.08203,-6.438 0.09766,-7.43 0.20313,-13.043 0.36719,-18.613 0.8164,-31.86 2.8789,-56.828 7.25391,-80.824 C 7.76172,191.688 16.0273,166.262 28.3516,142.25 40.8711,117.676 57.1367,95.3516 76.4688,76.3906 95.6992,57 118.02,40.7656 142.512,28.3516 166.598,16.0117 191.781,7.75391 219.988,2.66016 c 23.813,-4.26954 48.332,-6.24219 80.973,-7.14844 12.984,-0.28906 25.094,-0.4336 36.93,-0.4336 6.066,-0.03125 12.402,-0.05078 19.398,-0.0625 C 364.066,-4.99609 369.48,-5 381.719,-5 H 6218.5 c 10.82,0 15.66,0 21.7,0.01172 8,0.00781 15.04,0.03125 21.72,0.0664 11.87,0 24.37,0.14844 36.99,0.42969 32.8,0.90625 57.24,2.87891 80.85,7.15235 28.17,5.08593 53.41,13.33204 77.77,25.69144 24.48,12.4297 46.79,28.6679 66.03,48.0898 19.14,18.8438 35.41,41.1286 48.19,65.7886 12.33,24.356 20.59,49.883 25.28,77.641 4.34,23.301 6.3,46.641 7.5,80.734 0.08,5.934 0.12,11.93 0.14,18.692 0.01,5.082 0.02,9.133 0.02,18.359 0.06,2.766 0.11,5.703 0.15,8.731 0.13,9.695 0.16,17.422 0.16,35.019 v 837.144 c 0,21.96 -0.05,31.65 -0.31,43.79 0,9.1 -0.01,13.2 -0.02,18.32 -0.02,6.78 -0.06,12.76 -0.14,18.47 -1.2,34.2 -3.16,57.54 -7.51,80.93 -4.67,27.59 -12.91,53.01 -25.24,77.47 -12.74,24.7 -28.99,47.01 -48.24,66.14 -19.28,19.29 -41.6,35.54 -65.99,48.05 -24.73,12.43 -50.07,20.71 -77.82,25.55 -23.85,4.32 -48.92,6.36 -80.8,7.15 -3.55,0.06 -3.55,0.06 -7.08,0.12 -5.35,0.08 -8.2,0.13 -11.43,0.18 -7.05,0.1 -12.92,0.17 -18.49,0.21 -6.64,0.03 -13.63,0.05 -21.54,0.06 -6.1,0.01 -10.98,0.01 -21.9,0.01 z m 0,-10 c 10.92,0 15.8,0 21.89,-0.01 7.9,-0.01 14.87,-0.03 21.49,-0.06 5.53,-0.04 11.37,-0.11 18.4,-0.21 3.22,-0.05 6.07,-0.09 11.41,-0.18 3.53,-0.06 3.53,-0.06 7.04,-0.12 31.37,-0.78 55.96,-2.78 79.26,-6.99 26.82,-4.69 51.23,-12.66 75.04,-24.63 23.43,-12.01 44.91,-27.64 63.45,-46.21 18.53,-18.4 34.16,-39.87 46.4,-63.61 11.86,-23.5 19.79,-47.97 24.3,-74.67 4.26,-22.87 6.19,-45.78 7.37,-79.42 0.07,-5.57 0.11,-11.51 0.13,-18.26 0.01,-5.11 0.02,-9.2 0.02,-18.4 0.26,-12.14 0.31,-21.8 0.31,-43.68 V 381.406 c 0,-17.551 -0.03,-25.246 -0.16,-34.883 -0.04,-3.003 -0.09,-5.914 -0.15,-8.761 0,-9.321 -0.01,-13.367 -0.02,-18.434 -0.02,-6.73 -0.06,-12.699 -0.14,-18.484 -1.17,-33.528 -3.1,-56.438 -7.34,-79.227 -4.55,-26.863 -12.49,-51.429 -24.33,-74.828 C 6550.57,123.094 6534.92,101.66 6516.5,83.5234 6497.97,64.8203 6476.53,49.2148 6453,37.2695 6429.54,25.3633 6405.23,17.418 6377.98,12.5 6354.96,8.33594 6330.97,6.39844 6298.66,5.50781 6286.14,5.22656 6273.71,5.07813 6261.89,5.07813 6255.2,5.04297 6248.17,5.01953 6240.19,5.01172 6234.15,5 6229.32,5 6218.5,5 H 381.719 c -12.235,0 -17.645,0.00391 -24.41,0.01563 -6.985,0.01171 -13.313,0.03125 -19.391,0.0625 -11.785,0 -23.824,0.14453 -36.707,0.42968 C 269.051,6.39844 244.984,8.33984 221.758,12.5 194.5,17.4219 170.254,25.375 147.055,37.2617 123.492,49.2031 102.043,64.8008 83.5195,83.4805 64.918,101.723 49.293,123.172 37.2539,146.801 25.3984,169.902 17.4453,194.367 12.7031,221.563 8.42969,245.012 6.40625,269.5 5.60156,300.906 5.4375,306.438 5.33203,312 5.23438,319.379 5.21094,321.172 5.19531,322.586 5.15625,325.801 5.08594,331.824 5.05078,334.402 5,337.734 c 0,4.325 0,4.325 0,8.723 0,17.375 0,17.375 0,34.949 v 837.144 c 0,21.92 0,21.92 0,43.68 0.05078,3.22 0.08594,5.87 0.15625,11.81 0.03906,3.27 0.05859,4.72 0.08203,6.54 0.09766,7.38 0.20313,12.92 0.36328,18.33 0.80469,31.43 2.82813,55.92 7.09764,79.33 4.7305,27.15 12.6641,51.52 24.5508,74.76 11.9961,23.65 27.5938,45.13 46.2383,63.56 18.6017,18.61 40.0707,34.23 63.5627,46.25 23.515,11.94 47.875,19.92 74.687,24.61 23.524,4.21 48.203,6.22 79.489,7 2.207,0.03 3.953,0.06 7.937,0.13 9.082,0.15 12.68,0.2 17.496,0.26 4.016,0.05 7.707,0.09 11.262,0.11 6.074,0.03 12.402,0.05 19.387,0.06 6.765,0.02 12.175,0.02 24.41,0.02 z" /></clipPath><clipPath
       id="clipPath32"
       clipPathUnits="userSpaceOnUse"><path
         style="clip-rule:evenodd"
         id="path30"
         d="M 6218.49,1600 H 381.719 c -14.68,0 -29.184,0 -43.828,-0.08 -12.254,-0.08 -24.414,-0.31 -36.789,-0.5 -26.645,-0.67 -53.622,-2.31 -80.227,-7.08 -26.797,-4.68 -51.703,-12.69 -76.102,-25.07 C 120.809,1555 98.9141,1539.06 79.9727,1520.12 60.8125,1501.17 44.9414,1479.22 32.8008,1455.27 20.3516,1430.94 12.4492,1405.94 7.77734,1379.14 2.94922,1352.66 1.28906,1325.86 0.605469,1299.06 0.234375,1286.8 0.195313,1274.49 0,1262.23 c 0,-14.5 0,-29.03 0,-43.68 V 381.406 C 0,366.641 0,352.188 0,337.656 0.195313,325.234 0.234375,313.203 0.605469,300.781 1.28906,273.984 2.94922,247.188 7.77734,220.703 12.4492,193.906 20.3516,168.789 32.8008,144.531 44.9375,120.703 60.8125,98.7461 79.9688,79.9609 98.9102,60.8594 120.805,44.9609 144.773,32.8125 169.172,20.3125 194.074,12.4219 220.875,7.57813 247.48,2.8125 274.457,1.24609 301.102,0.507813 313.477,0.234375 325.637,0.078125 337.891,0.078125 352.535,0 367.039,0 381.719,0 H 6218.5 c 14.39,0 29.01,0 43.39,0.078125 12.2,0 24.72,0.15625 36.91,0.429688 26.82,0.738277 53.72,2.304687 80.07,7.070317 26.82,4.84377 51.76,12.73437 76.4,25.23437 23.92,12.1484 45.82,28.0469 64.74,47.1484 19.08,18.7852 34.95,40.7421 47.31,64.5701 12.27,24.258 20.25,49.375 24.78,76.172 4.93,26.485 6.49,53.281 7.43,80.078 0.16,12.422 0.16,24.453 0.16,36.875 0.31,14.532 0.31,28.985 0.31,43.75 v 837.144 c 0,14.65 0,29.18 -0.31,43.68 0,12.26 0,24.57 -0.16,36.83 -0.94,26.8 -2.5,53.6 -7.43,80.08 -4.53,26.8 -12.51,51.8 -24.78,76.14 -12.36,23.94 -28.23,45.9 -47.31,64.84 -18.92,18.94 -40.82,34.88 -64.74,47.15 -24.64,12.38 -49.58,20.39 -76.4,25.08 -26.35,4.76 -53.25,6.41 -80.07,7.07 -12.19,0.2 -24.71,0.43 -36.91,0.51 -14.39,0.07 -29.01,0.07 -43.4,0.07 z" /></clipPath><clipPath
       id="clipPath38"
       clipPathUnits="userSpaceOnUse"><path
         id="path36"
         d="M 0,0 H 6600 V 1600 H 0 Z" /></clipPath><clipPath
       id="clipPath48"
       clipPathUnits="userSpaceOnUse"><path
         style="clip-rule:evenodd"
         id="path46"
         d="M 6218.49,1600 H 381.719 c -14.68,0 -29.184,0 -43.828,-0.08 -12.254,-0.08 -24.414,-0.31 -36.789,-0.5 -26.645,-0.67 -53.622,-2.31 -80.227,-7.08 -26.797,-4.68 -51.703,-12.69 -76.102,-25.07 C 120.809,1555 98.9141,1539.06 79.9727,1520.12 60.8125,1501.17 44.9414,1479.22 32.8008,1455.27 20.3516,1430.94 12.4492,1405.94 7.77734,1379.14 2.94922,1352.66 1.28906,1325.86 0.605469,1299.06 0.234375,1286.8 0.195313,1274.49 0,1262.23 c 0,-14.5 0,-29.03 0,-43.68 V 381.406 C 0,366.641 0,352.188 0,337.656 0.195313,325.234 0.234375,313.203 0.605469,300.781 1.28906,273.984 2.94922,247.188 7.77734,220.703 12.4492,193.906 20.3516,168.789 32.8008,144.531 44.9375,120.703 60.8125,98.7461 79.9688,79.9609 98.9102,60.8594 120.805,44.9609 144.773,32.8125 169.172,20.3125 194.074,12.4219 220.875,7.57813 247.48,2.8125 274.457,1.24609 301.102,0.507813 313.477,0.234375 325.637,0.078125 337.891,0.078125 352.535,0 367.039,0 381.719,0 H 6218.5 c 14.39,0 29.01,0 43.39,0.078125 12.2,0 24.72,0.15625 36.91,0.429688 26.82,0.738277 53.72,2.304687 80.07,7.070317 26.82,4.84377 51.76,12.73437 76.4,25.23437 23.92,12.1484 45.82,28.0469 64.74,47.1484 19.08,18.7852 34.95,40.7421 47.31,64.5701 12.27,24.258 20.25,49.375 24.78,76.172 4.93,26.485 6.49,53.281 7.43,80.078 0.16,12.422 0.16,24.453 0.16,36.875 0.31,14.532 0.31,28.985 0.31,43.75 v 837.144 c 0,14.65 0,29.18 -0.31,43.68 0,12.26 0,24.57 -0.16,36.83 -0.94,26.8 -2.5,53.6 -7.43,80.08 -4.53,26.8 -12.51,51.8 -24.78,76.14 -12.36,23.94 -28.23,45.9 -47.31,64.84 -18.92,18.94 -40.82,34.88 -64.74,47.15 -24.64,12.38 -49.58,20.39 -76.4,25.08 -26.35,4.76 -53.25,6.41 -80.07,7.07 -12.19,0.2 -24.71,0.43 -36.91,0.51 -14.39,0.07 -29.01,0.07 -43.4,0.07 z" /></clipPath><clipPath
       id="clipPath54"
       clipPathUnits="userSpaceOnUse"><path
         id="path52"
         d="M 0,0 H 6600 V 1600 H 0 Z" /></clipPath><clipPath
       id="clipPath64"
       clipPathUnits="userSpaceOnUse"><path
         style="clip-rule:evenodd"
         id="path62"
         d="m 3573.9,853.336 c 20.73,-12.406 47.58,-5.52 59.9,15.371 12.32,20.856 5.5,47.836 -15.28,60.238 -173.45,103.535 -447.91,113.265 -613.02,62.871 -23.11,-7.062 -36.14,-31.605 -29.14,-54.839 7,-23.223 31.43,-36.336 54.52,-29.293 143.83,43.894 392.35,35.625 543.02,-54.348 z m -4.94,-133.262 c 10.54,17.207 5.15,39.77 -11.98,50.375 -144.27,89.156 -355.31,114.242 -525.07,62.446 -19.24,-5.895 -30.11,-26.325 -24.3,-45.704 5.85,-19.339 26.2,-30.265 45.48,-24.414 148.6,45.36 340.14,22.871 465.75,-54.769 17.13,-10.586 39.56,-5.18 50.12,12.066 z m -57.19,-127.98 c 8.4,13.808 4.08,31.851 -9.66,40.285 -123.2,75.699 -275.93,93.32 -453.98,52.387 -15.71,-3.598 -25.5,-19.305 -21.91,-35.071 3.58,-15.761 19.2,-25.644 34.88,-22.031 162.7,37.375 300.85,22.137 410.62,-45.32 13.72,-8.442 31.66,-4.094 40.05,9.75 z M 3297.41,1270 c 258.15,0 467.41,-210.42 467.41,-469.996 C 3764.82,540.414 3555.56,330 3297.41,330 3039.27,330 2830,540.414 2830,800.004 2830,1059.58 3039.27,1270 3297.41,1270 Z m 804.26,-433.891 c 98.32,-24.043 138.42,-61.363 138.42,-128.847 0,-79.848 -60.68,-131.446 -154.57,-131.446 -66.38,0 -127.88,23.719 -177.9,68.614 -2.14,1.898 -2.37,5.175 -0.52,7.367 l 44.19,52.875 c 0.9,1.098 2.2,1.758 3.62,1.875 1.35,0.078 2.81,-0.348 3.88,-1.266 42.98,-37.429 81.41,-53.386 128.51,-53.386 42.41,0 68.77,18.453 68.77,48.136 0,26.793 -13.03,41.774 -90.26,59.66 -90.73,22.051 -143.24,50.618 -143.24,131.297 0,75.235 60.87,127.812 148.01,127.812 59.26,0 109.96,-17.66 154.99,-53.987 2.18,-1.762 2.63,-4.926 1,-7.227 l -39.4,-55.856 c -0.83,-1.179 -2.08,-1.953 -3.49,-2.167 -1.41,-0.223 -2.84,0.121 -3.99,0.976 -37.83,28.367 -73.91,42.145 -110.31,42.145 -37.54,0 -62.79,-18.137 -62.79,-45.106 0,-28.535 14.37,-42.117 95.08,-61.469 z m 419.02,-90.441 c 0,56.066 -35.71,96.746 -84.89,96.746 -49.42,0 -86.69,-41.578 -86.69,-96.746 0,-55.176 37.27,-96.75 86.69,-96.75 49.98,0 84.89,39.766 84.89,96.75 z m -68.17,170.477 c 75.63,0 152.18,-58.555 152.18,-170.477 0,-111.902 -76.55,-170.438 -152.18,-170.438 -40.68,0 -74.07,15.176 -101.61,46.247 V 491.086 c 0,-2.934 -2.36,-5.324 -5.28,-5.324 h -72.26 c -2.92,0 -5.28,2.39 -5.28,5.324 v 413.086 c 0,2.933 2.36,5.328 5.28,5.328 h 72.26 c 2.92,0 5.28,-2.395 5.28,-5.328 v -37.176 c 27.53,33.027 60.91,49.149 101.61,49.149 z m 348.42,-267.821 c 52.29,0 90.26,40.41 90.26,96.125 0,55.528 -39.32,97.379 -91.46,97.379 -51.95,0 -89.66,-40.441 -89.66,-96.16 0,-55.492 39.06,-97.344 90.86,-97.344 z m 0,267.821 c 97.06,0 173.07,-74.883 173.07,-170.477 0,-95.918 -76.53,-171.074 -174.27,-171.074 -96.72,0 -172.49,74.617 -172.49,169.855 0,96.285 76.3,171.696 173.69,171.696 z m 381.05,-6.645 c 2.92,0 5.27,-2.395 5.27,-5.328 v -62.449 c 0,-2.93 -2.35,-5.321 -5.27,-5.321 h -79.52 V 686.195 c 0,-23.722 10.35,-34.3 33.53,-34.3 15.04,0 28.5,3.25 42.42,10.293 1.61,0.8 3.57,0.75 5.14,-0.243 1.56,-0.965 2.51,-2.691 2.51,-4.527 v -59.469 c 0,-1.898 -1.02,-3.683 -2.67,-4.609 -20.26,-11.555 -41.77,-16.938 -67.69,-16.938 -63.75,0 -96.07,33.106 -96.07,98.407 v 161.593 h -34.74 c -2.92,0 -5.27,2.391 -5.27,5.321 v 62.449 c 0,2.933 2.35,5.328 5.27,5.328 h 34.74 v 81.75 c 0,2.934 2.38,5.32 5.31,5.32 h 72.25 c 2.92,0 5.27,-2.386 5.27,-5.32 V 909.5 Z m 277.05,-0.32 h 123.44 c 2.2,0 4.17,-1.36 4.94,-3.426 l 84.41,-221.481 77.06,221.336 c 0.74,2.133 2.76,3.571 5,3.571 h 75.24 c 1.75,0 3.35,-0.871 4.34,-2.309 1,-1.457 1.19,-3.305 0.56,-4.945 L 5708.66,576.184 c -26,-67.239 -55.49,-92.235 -108.85,-92.235 -28.52,0 -51.61,5.942 -77.18,19.867 -2.44,1.325 -3.43,4.321 -2.27,6.875 l 24.49,54.032 c 0.59,1.351 1.75,2.379 3.13,2.875 1.4,0.429 2.92,0.312 4.21,-0.399 13.7,-7.547 27.11,-11.367 39.85,-11.367 15.75,0 27.28,5.207 39.01,31.391 L 5527.7,836.402 h -67.47 V 587.156 c 0,-2.937 -2.37,-5.32 -5.29,-5.32 h -72.26 c -2.91,0 -5.27,2.383 -5.27,5.32 v 249.246 h -34.72 c -2.91,0 -5.3,2.391 -5.3,5.321 v 62.769 c 0,2.93 2.39,5.321 5.3,5.321 h 34.72 v 15.378 c 0,71.461 35.27,109.259 102.02,109.259 27.43,0 45.75,-4.4 60.07,-8.68 2.23,-0.69 3.73,-2.77 3.73,-5.1 v -61.232 c 0,-1.708 -0.79,-3.317 -2.18,-4.321 -1.36,-1.008 -3.1,-1.269 -4.77,-0.742 -13.55,4.547 -25.65,7.555 -40.72,7.555 -25.26,0 -36.52,-13.172 -36.52,-42.711 z m -160.61,0.32 c 2.91,0 5.28,-2.395 5.28,-5.328 V 587.156 c 0,-2.937 -2.37,-5.32 -5.28,-5.32 h -72.27 c -2.92,0 -5.29,2.383 -5.29,5.32 v 317.016 c 0,2.933 2.37,5.328 5.29,5.328 z m -35.77,144.34 c 28.61,0 51.82,-23.3 51.82,-52.09 0,-28.797 -23.21,-52.129 -51.82,-52.129 -28.62,0 -51.86,23.332 -51.86,52.129 0,28.79 23.24,52.09 51.86,52.09 z m 636.02,-175.879 h -13.24 v -16.977 h 13.24 c 6.61,0 10.55,3.25 10.55,8.496 0,5.524 -3.94,8.481 -10.55,8.481 z m 8.59,-24.215 14.38,-20.25 h -12.13 l -12.95,18.57 h -11.13 v -18.57 h -10.15 v 53.672 h 23.8 c 12.4,0 20.56,-6.379 20.56,-17.121 0,-8.797 -5.06,-14.176 -12.38,-16.301 z m -11.28,51.285 c -26.05,0 -45.76,-20.824 -45.76,-46.32 0,-25.481 19.57,-46.027 45.49,-46.027 26.05,0 45.78,20.812 45.78,46.32 0,25.484 -19.59,46.027 -45.51,46.027 z m -0.27,-97.461 c -28.6,0 -50.85,23.098 -50.85,51.141 0,28.051 22.54,51.406 51.12,51.406 28.59,0 50.85,-23.09 50.85,-51.113 0,-28.047 -22.52,-51.434 -51.12,-51.434 z" /></clipPath><clipPath
       id="clipPath70"
       clipPathUnits="userSpaceOnUse"><path
         id="path68"
         d="M 0,0 H 6600 V 1600 H 0 Z" /></clipPath><clipPath
       id="clipPath80"
       clipPathUnits="userSpaceOnUse"><path
         style="clip-rule:evenodd"
         id="path78"
         d="M 784.359,683.84 H 630 v 241.058 h 46.922 V 728.719 h 107.437 z m 111.899,0 h -47.602 v 241.058 h 47.602 z m 249.252,183.601 -42.15,-12.921 c -2.39,13.261 -13.27,34 -43.87,34 -22.78,0 -37.74,-14.622 -37.74,-30.598 0,-13.262 8.5,-23.801 26.18,-27.203 l 33.66,-6.457 c 43.86,-8.5 67.32,-37.063 67.32,-71.063 0,-37.058 -30.94,-74.461 -87.03,-74.461 -63.927,0 -92.146,41.141 -95.888,75.481 l 43.518,11.562 c 2.04,-23.801 18.7,-45.222 52.7,-45.222 25.17,0 39.1,12.582 39.1,29.582 0,13.937 -10.54,24.82 -29.24,28.558 l -33.66,6.801 c -38.418,7.82 -63.238,32.641 -63.238,69.02 0,42.839 38.418,75.48 83.978,75.48 58.48,0 80.92,-35.359 86.36,-62.559 z m 254.02,12.918 h -76.16 V 683.84 h -47.26 v 196.519 h -76.16 v 44.539 h 199.58 z M 1614.79,683.84 h -150.96 v 241.058 h 150.96 v -44.199 h -104.04 v -55.078 h 94.18 v -41.82 h -94.18 v -55.762 h 104.04 z m 281.89,0 h -49.3 L 1737.9,854.859 V 683.84 h -46.92 v 241.058 h 58.48 l 100.31,-159.457 v 159.457 h 46.91 z m 227.54,120.699 c 0,-54.398 38.08,-80.238 75.14,-80.238 37.4,0 75.48,25.84 75.48,80.238 0,54.402 -38.08,80.242 -75.48,80.242 -37.06,0 -75.14,-25.84 -75.14,-80.242 z m -48.62,-0.34 c 0,77.86 58.48,125.801 123.76,125.801 65.62,0 124.1,-47.941 124.1,-125.801 0,-77.519 -58.48,-125.461 -124.1,-125.461 -65.28,0 -123.76,47.942 -123.76,125.461 z M 2601.95,683.84 h -49.3 L 2443.18,854.859 V 683.84 h -46.93 v 241.058 h 58.48 l 100.31,-159.457 v 159.457 h 46.91 z" /></clipPath><clipPath
       id="clipPath86"
       clipPathUnits="userSpaceOnUse"><path
         id="path84"
         d="M 0,0 H 6600 V 1600 H 0 Z" /></clipPath></defs><g
     transform="matrix(1.3333333,0,0,-1.3333333,0,213.33333)"
     id="g10"><g
       transform="scale(0.1)"
       id="g12"><g
         id="g14"><g
           clip-path="url(#clipPath20)"
           id="g16"><g
             clip-path="url(#clipPath26)"
             id="g22"><g
               clip-path="url(#clipPath32)"
               id="g28"><g
                 clip-path="url(#clipPath38)"
                 id="g34"><path
                   id="path40"
                   style="fill:#000000;fill-opacity:1;fill-rule:nonzero;stroke:none"
                   d="M 6218.49,1600 H 381.719 c -14.68,0 -29.184,0 -43.828,-0.08 -12.254,-0.08 -24.414,-0.31 -36.789,-0.5 -26.645,-0.67 -53.622,-2.31 -80.227,-7.08 -26.797,-4.68 -51.703,-12.69 -76.102,-25.07 C 120.809,1555 98.9141,1539.06 79.9727,1520.12 60.8125,1501.17 44.9414,1479.22 32.8008,1455.27 20.3516,1430.94 12.4492,1405.94 7.77734,1379.14 2.94922,1352.66 1.28906,1325.86 0.605469,1299.06 0.234375,1286.8 0.195313,1274.49 0,1262.23 c 0,-14.5 0,-29.03 0,-43.68 V 381.406 C 0,366.641 0,352.188 0,337.656 0.195313,325.234 0.234375,313.203 0.605469,300.781 1.28906,273.984 2.94922,247.188 7.77734,220.703 12.4492,193.906 20.3516,168.789 32.8008,144.531 44.9375,120.703 60.8125,98.7461 79.9688,79.9609 98.9102,60.8594 120.805,44.9609 144.773,32.8125 169.172,20.3125 194.074,12.4219 220.875,7.57813 247.48,2.8125 274.457,1.24609 301.102,0.507813 313.477,0.234375 325.637,0.078125 337.891,0.078125 352.535,0 367.039,0 381.719,0 H 6218.5 c 14.39,0 29.01,0 43.39,0.078125 12.2,0 24.72,0.15625 36.91,0.429688 26.82,0.738277 53.72,2.304687 80.07,7.070317 26.82,4.84377 51.76,12.73437 76.4,25.23437 23.92,12.1484 45.82,28.0469 64.74,47.1484 19.08,18.7852 34.95,40.7421 47.31,64.5701 12.27,24.258 20.25,49.375 24.78,76.172 4.93,26.485 6.49,53.281 7.43,80.078 0.16,12.422 0.16,24.453 0.16,36.875 0.31,14.532 0.31,28.985 0.31,43.75 v 837.144 c 0,14.65 0,29.18 -0.31,43.68 0,12.26 0,24.57 -0.16,36.83 -0.94,26.8 -2.5,53.6 -7.43,80.08 -4.53,26.8 -12.51,51.8 -24.78,76.14 -12.36,23.94 -28.23,45.9 -47.31,64.84 -18.92,18.94 -40.82,34.88 -64.74,47.15 -24.64,12.38 -49.58,20.39 -76.4,25.08 -26.35,4.76 -53.25,6.41 -80.07,7.07 -12.19,0.2 -24.71,0.43 -36.91,0.51 -14.39,0.07 -29.01,0.07 -43.4,0.07" /></g></g></g></g></g><g
         id="g42"><g
           clip-path="url(#clipPath48)"
           id="g44"><g
             clip-path="url(#clipPath54)"
             id="g50"><path
               id="path56"
               style="fill:none;stroke:#1f1f23;stroke-width:20;stroke-linecap:butt;stroke-linejoin:miter;stroke-miterlimit:10;stroke-dasharray:none;stroke-opacity:1"
               d="M 6218.49,1600 H 381.719 c -14.68,0 -29.184,0 -43.828,-0.08 -12.254,-0.08 -24.414,-0.31 -36.789,-0.5 -26.645,-0.67 -53.622,-2.31 -80.227,-7.08 -26.797,-4.68 -51.703,-12.69 -76.102,-25.07 C 120.809,1555 98.9141,1539.06 79.9727,1520.12 60.8125,1501.17 44.9414,1479.22 32.8008,1455.27 20.3516,1430.94 12.4492,1405.94 7.77734,1379.14 2.94922,1352.66 1.28906,1325.86 0.605469,1299.06 0.234375,1286.8 0.195313,1274.49 0,1262.23 c 0,-14.5 0,-29.03 0,-43.68 V 381.406 C 0,366.641 0,352.188 0,337.656 0.195313,325.234 0.234375,313.203 0.605469,300.781 1.28906,273.984 2.94922,247.188 7.77734,220.703 12.4492,193.906 20.3516,168.789 32.8008,144.531 44.9375,120.703 60.8125,98.75 79.9688,79.9609 98.9102,60.8594 120.805,44.9609 144.773,32.8125 169.172,20.3125 194.074,12.4219 220.875,7.57813 247.48,2.8125 274.457,1.25 301.102,0.507813 313.477,0.234375 325.637,0.078125 337.891,0.078125 352.535,0 367.039,0 381.719,0 H 6218.5 c 14.39,0 29.01,0 43.39,0.078125 12.2,0 24.72,0.15625 36.91,0.429688 26.82,0.742187 53.72,2.304687 80.07,7.070317 26.82,4.84377 51.76,12.73437 76.4,25.23437 23.92,12.1484 45.82,28.0469 64.74,47.1484 19.08,18.7891 34.95,40.7421 47.31,64.5701 12.27,24.258 20.25,49.375 24.78,76.172 4.93,26.485 6.49,53.281 7.43,80.078 0.16,12.422 0.16,24.453 0.16,36.875 0.31,14.532 0.31,28.985 0.31,43.75 v 837.144 c 0,14.65 0,29.18 -0.31,43.68 0,12.26 0,24.57 -0.16,36.83 -0.94,26.8 -2.5,53.6 -7.43,80.08 -4.53,26.8 -12.51,51.8 -24.78,76.14 -12.36,23.94 -28.23,45.9 -47.31,64.84 -18.92,18.94 -40.82,34.88 -64.74,47.15 -24.64,12.38 -49.58,20.39 -76.4,25.08 -26.35,4.76 -53.25,6.41 -80.07,7.07 -12.19,0.2 -24.71,0.43 -36.91,0.51 -14.39,0.07 -29.01,0.07 -43.4,0.07 z" /></g></g></g><g
         id="g58"><g
           clip-path="url(#clipPath64)"
           id="g60"><g
             clip-path="url(#clipPath70)"
             id="g66"><path
               id="path72"
               style="fill:#1fd85c;fill-opacity:1;fill-rule:nonzero;stroke:none"
               d="M 2780,280 H 5996.84 V 1320 H 2780 Z" /></g></g></g><g
         id="g74"><g
           clip-path="url(#clipPath80)"
           id="g76"><g
             clip-path="url(#clipPath86)"
             id="g82"><path
               id="path88"
               style="fill:#ffffff;fill-opacity:1;fill-rule:nonzero;stroke:none"
               d="M 580,628.738 H 2651.95 V 980 H 580 Z" /></g></g></g></g></g></svg>