<?xml version="1.0" encoding="UTF-8"?>
<svg width="22px" height="23px" viewBox="0 0 22 23" version="1.1" xmlns="http://www.w3.org/2000/svg" xmlns:xlink="http://www.w3.org/1999/xlink">
    <!-- Generator: sketchtool 52.5 (67469) - http://www.bohemiancoding.com/sketch -->
    <title>15529E2B-365E-4218-8EFA-0510396E05DE</title>
    <desc>Created with sketchtool.</desc>
    <g id="Landing" stroke="none" stroke-width="1" fill="none" fill-rule="evenodd">
        <g id="Home" transform="translate(-523.000000, -1021.000000)" fill="#FF6D66">
            <g id="icon/calendar-copy" transform="translate(523.000000, 1021.000000)">
                <g id="Group-8">
                    <path d="M1.59879149,21.2093796 L20.4560681,21.2093796 L20.4560681,6.63526531 L1.59879149,6.63526531 L1.59879149,21.2093796 Z M21.2050043,22.7114204 L0.849855319,22.7114204 C0.436255319,22.7114204 0.100919149,22.375151 0.100919149,21.9604 L0.100919149,5.8842449 C0.100919149,5.46949388 0.436255319,5.13322449 0.849855319,5.13322449 L21.2050043,5.13322449 C21.6186043,5.13322449 21.9539404,5.46949388 21.9539404,5.8842449 L21.9539404,21.9604 C21.9539404,22.375151 21.6186043,22.7114204 21.2050043,22.7114204 Z" id="Fill-8"></path>
                    <path d="M5.21238979,9.90798694 C4.79878979,9.90798694 4.46345362,9.57171755 4.46345362,9.15696653 C4.46345362,8.74221551 4.79878979,8.40594612 5.21238979,8.40594612 C5.45935149,8.40594612 6.20473021,7.23604408 6.20473021,5.10708898 C6.20473021,2.97794612 5.45935149,1.80785633 5.21238979,1.80785633 C4.96542809,1.80785633 4.22004936,2.97794612 4.22004936,5.10708898 C4.22004936,5.52184 3.88471319,5.85810939 3.47111319,5.85810939 C3.05751319,5.85810939 2.72217702,5.52184 2.72217702,5.10708898 C2.72217702,2.7212849 3.57764936,0.30581551 5.21238979,0.30581551 C6.84713021,0.30581551 7.70260255,2.7212849 7.70260255,5.10708898 C7.70260255,7.49289306 6.84713021,9.90798694 5.21238979,9.90798694" id="Fill-18"></path>
                    <path d="M16.0719643,9.90798694 C15.6583643,9.90798694 15.3230281,9.57171755 15.3230281,9.15696653 C15.3230281,8.74221551 15.6583643,8.40594612 16.0719643,8.40594612 C16.318926,8.40594612 17.0643047,7.23604408 17.0643047,5.10708898 C17.0643047,2.97794612 16.318926,1.80785633 16.0719643,1.80785633 C15.8250026,1.80785633 15.0796238,2.97794612 15.0796238,5.10708898 C15.0796238,5.52184 14.7442877,5.85810939 14.3306877,5.85810939 C13.9170877,5.85810939 13.5817515,5.52184 13.5817515,5.10708898 C13.5817515,2.7212849 14.4372238,0.30581551 16.0719643,0.30581551 C17.7067047,0.30581551 18.562177,2.7212849 18.562177,5.10708898 C18.562177,7.49289306 17.7067047,9.90798694 16.0719643,9.90798694" id="Fill-19"></path>
                </g>
            </g>
        </g>
    </g>
</svg>