<?xml version="1.0" encoding="UTF-8"?>
<svg width="207px" height="56px" viewBox="0 0 207 56" version="1.1" xmlns="http://www.w3.org/2000/svg" xmlns:xlink="http://www.w3.org/1999/xlink">
    <!-- Generator: sketchtool 54.1 (76490) - https://sketchapp.com -->
    <title>2C692D99-EC81-42DA-AB77-DFAFE24B3D13@1x</title>
    <desc>Created with sketchtool.</desc>
    <g id="Landing" stroke="none" stroke-width="1" fill="none" fill-rule="evenodd">
        <g id="Calendar-view" transform="translate(-81.000000, -54.000000)" fill="#1E1346">
            <g id="Group-13" transform="translate(81.000000, 54.000000)">
                <g id="Group-2">
                    <path d="M21.1972811,54.7062001 L21.2226833,54.309752 L21.2400214,48.4041684 C21.2400214,48.3553686 21.2690526,48.3110052 21.313809,48.2912433 L21.8815297,48.0359517 C21.885965,48.0343385 21.8912067,48.032322 21.8952388,48.0294988 L34.4415441,41.8924186 L35.5640828,41.2297898 L35.5592443,41.3116605 L35.4701347,41.4003875 L21.4561424,54.4823662 C21.4561424,54.4823662 21.1767173,54.7707288 21.1497022,54.7921039 L21.1972811,54.7062001 Z M20.250139,48.4041684 L20.250139,55.3938338 C20.250139,55.6241205 20.3098142,55.7789893 20.414649,55.8733625 C20.5053714,55.9552332 20.6235122,56 20.7452818,56 C20.7626199,56 20.7803612,55.9975802 20.7981024,55.9971769 C21.1299449,55.9891108 21.4646098,55.6652575 21.713794,55.4498931 C21.7186325,55.4454567 21.9270925,55.2736491 22.20934,55.0102915 C24.3237771,53.0353107 35.5999686,42.4441388 35.5999686,42.4441388 C35.5999686,42.4441388 36.1475287,41.9020979 36.1753503,41.8682203 C36.4850161,41.493954 36.5547716,40.9974866 36.3196997,40.7022679 C36.0189045,40.3247751 35.5423094,40.3062231 35.1326473,40.5006158 L21.4698515,47.1357767 L20.9380166,47.3862286 C20.525532,47.5826378 20.2569936,47.9907816 20.250139,48.4041684 L20.250139,48.4041684 Z M16.8506693,54.7921039 C16.8228478,54.7707288 16.543826,54.4823662 16.543826,54.4823662 L2.52943039,41.4003875 L2.44072403,41.3116605 L2.43628871,41.2297898 L3.55842419,41.8924186 L16.1043263,48.0294988 C16.1091648,48.032322 16.1140033,48.0343385 16.1180354,48.0359517 L16.6861593,48.2912433 C16.7309157,48.3110052 16.7595437,48.3553686 16.7595437,48.4041684 L16.777285,54.309752 L16.8026872,54.7062001 L16.8506693,54.7921039 Z M17.0619518,47.3862286 L16.53052,47.1357767 L2.8677242,40.5006158 C2.45725567,40.3062231 1.98106379,40.3247751 1.68067179,40.7022679 C1.44559994,40.9974866 1.51535539,41.493954 1.82421482,41.8682203 C1.85243957,41.9020979 2.39999975,42.4441388 2.39999975,42.4441388 C2.39999975,42.4441388 13.6765944,53.0353107 15.7906283,55.0102915 C16.0728758,55.2736491 16.2813358,55.4454567 16.2861743,55.4498931 C16.5353585,55.6652575 16.8704267,55.9891108 17.2022691,55.9971769 C17.2200104,55.9975802 17.2377516,56 17.2550897,56 C17.3764561,56 17.4941937,55.9552332 17.5857225,55.8733625 C17.6905573,55.7789893 17.7498293,55.6241205 17.7498293,55.3938338 L17.7498293,48.4041684 C17.7433779,47.9907816 17.4748395,47.5826378 17.0619518,47.3862286 L17.0619518,47.3862286 Z M16.3043188,29.5843806 L18.9997825,30.6172427 L21.6952463,29.5843806 L18.9997825,24.1918 L16.3043188,29.5843806 Z M18.9997825,31.6428453 C18.9397041,31.6428453 18.8796258,31.6319561 18.8223698,31.6097744 L15.4406414,30.3139579 C15.3100011,30.2639482 15.2067792,30.1611056 15.156781,30.0308384 C15.1059765,29.9009744 15.1124278,29.7553816 15.1749255,29.6303573 L18.5570572,22.8633159 C18.640925,22.695138 18.8122896,22.5894723 18.9997825,22.5894723 C19.1872755,22.5894723 19.3586401,22.695138 19.4425079,22.8629126 L22.8250428,29.629954 C22.8875405,29.7553816 22.8943951,29.9009744 22.8435905,30.0308384 C22.7931892,30.1611056 22.689564,30.2639482 22.5597301,30.3143612 L19.1767921,31.6097744 C19.1199393,31.6319561 19.0598609,31.6428453 18.9997825,31.6428453 L18.9997825,31.6428453 Z M11.3653905,31.3294779 L18.9997825,34.2933606 L26.6345778,31.3294779 L18.9997825,16.0559441 L11.3653905,31.3294779 Z M18.9997825,35.3197698 C18.9388977,35.3197698 18.8780129,35.3084773 18.8203538,35.2862956 L10.5005034,32.0558288 C10.3706696,32.0050125 10.2682541,31.9021699 10.2182559,31.772306 C10.1678546,31.642442 10.174306,31.4972525 10.2368036,31.3730348 L18.5570572,14.7270567 C18.640925,14.5592821 18.8122896,14.4532131 18.9997825,14.4532131 C19.1872755,14.4532131 19.3586401,14.5592821 19.4425079,14.7266534 L27.7631647,31.3726315 C27.8252591,31.4972525 27.8325169,31.642442 27.7821156,31.772306 C27.7321175,31.9021699 27.6292987,32.0050125 27.4994649,32.0558288 L19.1792113,35.2862956 C19.1215522,35.3084773 19.0606674,35.3197698 18.9997825,35.3197698 L18.9997825,35.3197698 Z M5.67528056,33.096757 L18.9997825,38.8107711 L32.325091,33.096757 L18.9997825,6.43955838 L5.67528056,33.096757 Z M18.9997825,39.8444398 C18.9332528,39.8444398 18.8671262,39.8315341 18.8046286,39.8045127 L4.80273253,33.7997162 C4.67733399,33.7460768 4.57975699,33.6428309 4.53258133,33.5153868 C4.4862121,33.387136 4.4938731,33.2455763 4.55516113,33.1233751 L18.5570572,5.110671 C18.640925,4.94289644 18.8122896,4.83723074 18.9997825,4.83723074 C19.1872755,4.83723074 19.3586401,4.94289644 19.4425079,5.110671 L33.4452104,33.1233751 C33.505692,33.2455763 33.5141594,33.387136 33.467387,33.5153868 C33.4198081,33.6428309 33.3226343,33.7460768 33.197639,33.7997162 L19.1945333,39.8045127 C19.1328421,39.8315341 19.0663123,39.8444398 18.9997825,39.8444398 L18.9997825,39.8444398 Z M18.9997825,0.990515149 C17.5054836,0.990515149 16.2144028,1.78825088 15.5458794,3.12520435 L1.40164996,31.4222379 C0.923845242,32.3776656 0.860541157,33.457311 1.22383403,34.4619418 C1.58672369,35.4669759 2.32540576,36.2566455 3.30359501,36.6861645 L17.4478244,42.8962428 C18.4336747,43.3289882 19.5654872,43.3297948 20.5517407,42.8962428 L34.6963733,36.6861645 C35.6745625,36.2566455 36.4128414,35.4669759 36.7761343,34.4619418 C37.1390239,33.457311 37.0761231,32.3776656 36.5983183,31.4222379 L22.4540889,3.12560766 C21.7855655,1.78825088 20.4944847,0.990515149 18.9997825,0.990515149 L18.9997825,0.990515149 Z M19.0001858,44.2114178 C18.3344848,44.2114178 17.6695903,44.075101 17.0498554,43.8028707 L2.90562601,37.5927924 C1.67663969,37.0531713 0.748448572,36.061043 0.292417229,34.7982975 C-0.163614113,33.5363586 -0.0841815982,32.1800465 0.516199188,30.9790066 L14.6604286,2.68237633 C15.487817,1.02802244 17.1502549,0 18.9997825,0 C20.8497134,0 22.5125545,1.02802244 23.3391365,2.68277963 L37.4841723,30.9790066 C38.0841499,32.1800465 38.1635824,33.5363586 37.7075511,34.7982975 C37.2511165,36.061043 36.3233286,37.0531713 35.0947455,37.5927924 L20.9501129,43.8028707 C20.3307812,44.075101 19.6646771,44.2114178 19.0001858,44.2114178 L19.0001858,44.2114178 Z" id="Fill-1"></path>
                    <g id="Group-10" transform="translate(54.000000, 11.000000)">
                        <path d="M12.337577,15.1791756 C12.5063735,15.3267854 12.591223,15.5142 12.591223,15.7393463 C12.591223,15.965322 12.5063735,16.1552244 12.337577,16.3107122 C12.1687805,16.4657854 11.9539487,16.5429073 11.6930814,16.5429073 L0.897780531,16.5429073 C0.652258407,16.5429073 0.441488496,16.4620537 0.265019469,16.2995171 C0.088099115,16.1382244 9.02654867e-05,15.9441756 9.02654867e-05,15.7182 L9.02654867e-05,0.852321951 C9.02654867e-05,0.612663415 0.088099115,0.415712195 0.265019469,0.260639024 C0.441488496,0.105565854 0.652258407,0.0276146341 0.897780531,0.0276146341 L11.6930814,0.0276146341 C11.9539487,0.0276146341 12.1687805,0.105565854 12.337577,0.260639024 C12.5063735,0.415712195 12.591223,0.606029268 12.591223,0.83117561 C12.591223,1.05673659 12.5063735,1.24373659 12.337577,1.39176098 C12.1687805,1.53937073 11.9539487,1.61359024 11.6930814,1.61359024 L1.79592212,1.61359024 L1.79592212,7.44998049 L9.00001062,7.44998049 C9.2613292,7.44998049 9.47570973,7.52751707 9.64450619,7.68259024 C9.81330265,7.83807805 9.89815221,8.02839512 9.89815221,8.25354146 C9.89815221,8.47951707 9.80924071,8.66983415 9.63322301,8.82449268 C9.45630265,8.97998049 9.24508142,9.05710244 9.00001062,9.05710244 L1.79592212,9.05710244 L1.79592212,14.9569317 L11.6930814,14.9569317 C11.9539487,14.9569317 12.1687805,15.0311512 12.337577,15.1791756" id="Fill-4"></path>
                        <path d="M30.8896168,0.238995122 C31.0430681,0.380385366 31.1197938,0.563653659 31.1197938,0.7888 C31.1197938,1.00026341 31.0430681,1.17689756 30.8896168,1.31787317 C30.7361655,1.45843415 30.5366788,1.52892195 30.2911566,1.52892195 L24.8129442,1.52892195 L24.8129442,15.7181171 C24.8129442,15.9440927 24.728546,16.1381415 24.5602009,16.2994341 C24.3909531,16.4619707 24.1761212,16.5428244 23.915254,16.5428244 C23.6697319,16.5428244 23.4585106,16.4619707 23.2824929,16.2994341 C23.1055726,16.1381415 23.018015,15.9440927 23.018015,15.7181171 L23.018015,1.52892195 L17.562369,1.52892195 C17.3168469,1.52892195 17.1169088,1.45843415 16.9643602,1.31787317 C16.8104575,1.17689756 16.7337319,1.00026341 16.7337319,0.7888 C16.7337319,0.563653659 16.8104575,0.380385366 16.9643602,0.238995122 C17.1169088,0.0984341463 17.3168469,0.0275317073 17.562369,0.0275317073 L30.2911566,0.0275317073 C30.5366788,0.0275317073 30.7361655,0.0984341463 30.8896168,0.238995122" id="Fill-6"></path>
                        <path d="M49.8219903,0.260431707 C49.9984593,0.105358537 50.2092292,0.0274073171 50.4547513,0.0274073171 C50.7156186,0.0274073171 50.9304504,0.105358537 51.0992469,0.260431707 C51.2680434,0.415504878 51.3528929,0.612870732 51.3528929,0.852529268 L51.3528929,15.7179927 C51.3528929,15.9439683 51.2680434,16.1380171 51.0992469,16.2997244 C50.9304504,16.4618463 50.7156186,16.5431146 50.4547513,16.5431146 C50.2092292,16.5431146 49.9984593,16.4618463 49.8219903,16.2997244 C49.6450699,16.1380171 49.5570611,15.9439683 49.5570611,15.7179927 L49.5570611,8.93001707 L38.3244239,8.93001707 L38.3244239,15.7179927 C38.3244239,15.9439683 38.2400257,16.1380171 38.0712292,16.2997244 C37.9024327,16.4618463 37.6876009,16.5431146 37.4267336,16.5431146 C37.1812115,16.5431146 36.9699903,16.4618463 36.7939726,16.2997244 C36.6170522,16.1380171 36.5290434,15.9439683 36.5290434,15.7179927 L36.5290434,0.852529268 C36.5290434,0.612870732 36.6170522,0.415504878 36.7939726,0.260431707 C36.9699903,0.105358537 37.1812115,0.0274073171 37.4267336,0.0274073171 C37.6876009,0.0274073171 37.9024327,0.105358537 38.0712292,0.260431707 C38.2400257,0.415504878 38.3244239,0.612870732 38.3244239,0.852529268 L38.3244239,7.4501878 L49.5570611,7.4501878 L49.5570611,0.852529268 C49.5570611,0.612870732 49.6450699,0.415504878 49.8219903,0.260431707" id="Fill-8"></path>
                        <path d="M71.0550956,15.1791756 C71.223892,15.3267854 71.3087416,15.5142 71.3087416,15.7393463 C71.3087416,15.965322 71.223892,16.1552244 71.0550956,16.3107122 C70.8862991,16.4657854 70.6714673,16.5429073 70.4106,16.5429073 L59.6152991,16.5429073 C59.369777,16.5429073 59.1590071,16.4620537 58.9825381,16.2995171 C58.8056177,16.1382244 58.7176088,15.9441756 58.7176088,15.7182 L58.7176088,0.852321951 C58.7176088,0.612663415 58.8056177,0.415712195 58.9825381,0.260639024 C59.1590071,0.105565854 59.369777,0.0276146341 59.6152991,0.0276146341 L70.4106,0.0276146341 C70.6714673,0.0276146341 70.8862991,0.105565854 71.0550956,0.260639024 C71.223892,0.415712195 71.3087416,0.606029268 71.3087416,0.83117561 C71.3087416,1.05673659 71.223892,1.24373659 71.0550956,1.39176098 C70.8862991,1.53937073 70.6714673,1.61359024 70.4106,1.61359024 L60.5134407,1.61359024 L60.5134407,7.44998049 L67.7175292,7.44998049 C67.9788478,7.44998049 68.1932283,7.52751707 68.3620248,7.68259024 C68.5308212,7.83807805 68.6156708,8.02839512 68.6156708,8.25354146 C68.6156708,8.47951707 68.5267593,8.66983415 68.3507416,8.82449268 C68.1738212,8.97998049 67.9626,9.05710244 67.7175292,9.05710244 L60.5134407,9.05710244 L60.5134407,14.9569317 L70.4106,14.9569317 C70.6714673,14.9569317 70.8862991,15.0311512 71.0550956,15.1791756" id="Fill-10"></path>
                        <path d="M82.6097549,8.48631707 C83.3770115,8.48631707 84.0711531,8.34160976 84.692631,8.05260976 C85.3141088,7.76402439 85.7974805,7.36556098 86.142746,6.85763415 C86.4884628,6.35053659 86.6608699,5.77253659 86.6608699,5.12404878 C86.6608699,4.44736585 86.4884628,3.84117073 86.142746,3.30546341 C85.7974805,2.7697561 85.3181708,2.35387805 84.7043655,2.05782927 C84.0901088,1.76136585 83.3923566,1.6137561 82.6097549,1.6137561 L79.2031354,1.6137561 L79.2031354,8.48631707 L82.6097549,8.48631707 Z M88.8475513,15.8452439 C88.8475513,16.0567073 88.7631531,16.225878 88.5943566,16.3527561 C88.4255602,16.4792195 88.2030558,16.5430732 87.9268434,16.5430732 C87.7427018,16.5430732 87.5892504,16.5082439 87.4664894,16.4373415 C87.343277,16.3668537 87.2363124,16.261122 87.1442416,16.1201463 L83.0010558,10.071878 L82.6097549,10.071878 L79.2031354,10.071878 L79.2031354,15.7179512 C79.2031354,15.958439 79.1187372,16.1553902 78.9499407,16.3104634 C78.7811442,16.4655366 78.5663124,16.5430732 78.3054451,16.5430732 C78.0445779,16.5430732 77.829746,16.4655366 77.6609496,16.3104634 C77.4917018,16.1553902 77.4077549,15.958439 77.4077549,15.7179512 L77.4077549,0.852487805 C77.4077549,0.612829268 77.4917018,0.415463415 77.6609496,0.260390244 C77.829746,0.105317073 78.0445779,0.0277804878 78.3054451,0.0277804878 L82.6097549,0.0277804878 C83.7294982,0.0277804878 84.7273832,0.242560976 85.6020558,0.672536585 C86.4767283,1.1025122 87.1631973,1.70539024 87.6619142,2.4807561 C88.160631,3.25612195 88.410215,4.13721951 88.410215,5.12404878 C88.410215,6.20956098 88.0915779,7.16114634 87.4547549,7.97839024 C86.8179319,8.79646341 85.9549938,9.3815122 84.8654894,9.73395122 L88.640392,15.2742927 C88.7784982,15.4857561 88.8475513,15.6760732 88.8475513,15.8452439 L88.8475513,15.8452439 Z" id="Fill-12"></path>
                        <path d="M106.732439,15.1791756 C106.901235,15.3267854 106.986085,15.5142 106.986085,15.7393463 C106.986085,15.965322 106.901235,16.1552244 106.732439,16.3107122 C106.563642,16.4657854 106.348811,16.5429073 106.087943,16.5429073 L95.2926425,16.5429073 C95.0471204,16.5429073 94.8363504,16.4620537 94.6598814,16.2995171 C94.4829611,16.1382244 94.3949522,15.9441756 94.3949522,15.7182 L94.3949522,0.852321951 C94.3949522,0.612663415 94.4829611,0.415712195 94.6598814,0.260639024 C94.8363504,0.105565854 95.0471204,0.0276146341 95.2926425,0.0276146341 L106.087943,0.0276146341 C106.348811,0.0276146341 106.563642,0.105565854 106.732439,0.260639024 C106.901235,0.415712195 106.986085,0.606029268 106.986085,0.83117561 C106.986085,1.05673659 106.901235,1.24373659 106.732439,1.39176098 C106.563642,1.53937073 106.348811,1.61359024 106.087943,1.61359024 L96.1907841,1.61359024 L96.1907841,7.44998049 L103.394873,7.44998049 C103.656191,7.44998049 103.870572,7.52751707 104.039368,7.68259024 C104.208165,7.83807805 104.293014,8.02839512 104.293014,8.25354146 C104.293014,8.47951707 104.204103,8.66983415 104.028085,8.82449268 C103.851165,8.97998049 103.639943,9.05710244 103.394873,9.05710244 L96.1907841,9.05710244 L96.1907841,14.9569317 L106.087943,14.9569317 C106.348811,14.9569317 106.563642,15.0311512 106.732439,15.1791756" id="Fill-14"></path>
                        <path d="M113.338383,0.260431707 C113.50718,0.105358537 113.722012,0.0274073171 113.982879,0.0274073171 C114.243746,0.0274073171 114.458127,0.105358537 114.626923,0.260431707 C114.795719,0.415504878 114.880569,0.612870732 114.880569,0.852529268 L114.880569,11.0869439 C114.880569,11.9050171 115.106684,12.6347732 115.559365,13.2757976 C116.012047,13.9176512 116.644808,14.4177 117.458551,14.7771878 C118.271843,15.1366756 119.199773,15.3166268 120.243693,15.3166268 C121.271365,15.3166268 122.184852,15.1366756 122.982799,14.7771878 C123.780746,14.4177 124.405835,13.9176512 124.858516,13.2757976 C125.311197,12.6347732 125.537764,11.9050171 125.537764,11.0869439 L125.537764,0.852529268 C125.537764,0.612870732 125.622162,0.415504878 125.790958,0.260431707 C125.959755,0.105358537 126.174135,0.0274073171 126.435454,0.0274073171 C126.696321,0.0274073171 126.910702,0.105358537 127.07995,0.260431707 C127.248295,0.415504878 127.333144,0.612870732 127.333144,0.852529268 L127.333144,11.0869439 C127.333144,12.2010659 127.029852,13.198261 126.423719,14.0793585 C125.817135,14.9604561 124.977215,15.6475049 123.903507,16.1413341 C122.828896,16.6343341 121.608958,16.8814561 120.243693,16.8814561 C118.862631,16.8814561 117.627348,16.6343341 116.537843,16.1413341 C115.448339,15.6475049 114.600295,14.9604561 113.994162,14.0793585 C113.387578,13.198261 113.084737,12.2010659 113.084737,11.0869439 L113.084737,0.852529268 C113.084737,0.612870732 113.169135,0.415504878 113.338383,0.260431707" id="Fill-16"></path>
                        <path d="M152.42185,0.260431707 C152.590646,0.415504878 152.675044,0.612870732 152.675044,0.852529268 L152.675044,15.7179927 C152.675044,15.9439683 152.590646,16.1380171 152.42185,16.2997244 C152.252602,16.4618463 152.045442,16.5431146 151.800372,16.5431146 C151.539053,16.5431146 151.320611,16.4618463 151.144142,16.2997244 C150.967673,16.1380171 150.879664,15.9439683 150.879664,15.7179927 L150.879664,3.74916341 L144.480743,15.7607 C144.296602,16.028139 144.035283,16.1624805 143.698142,16.1624805 C143.314062,16.1624805 143.038301,15.9928951 142.869504,15.6549683 L136.493602,3.93948049 L136.493602,15.7179927 C136.493602,15.9439683 136.409204,16.1380171 136.239956,16.2997244 C136.071159,16.4618463 135.856779,16.5431146 135.595912,16.5431146 C135.350389,16.5431146 135.139168,16.4618463 134.962699,16.2997244 C134.78623,16.1380171 134.69777,15.9439683 134.69777,15.7179927 L134.69777,0.852529268 C134.69777,0.612870732 134.78623,0.415504878 134.962699,0.260431707 C135.139168,0.105358537 135.350389,0.0274073171 135.595912,0.0274073171 C135.94885,0.0274073171 136.217389,0.168382927 136.401531,0.45074878 L143.767195,13.899822 L150.994752,0.45074878 C151.178894,0.168382927 151.447434,0.0274073171 151.800372,0.0274073171 C152.045442,0.0274073171 152.252602,0.105358537 152.42185,0.260431707" id="Fill-18"></path>
                    </g>
                    <g id="Group-7" transform="translate(54.000000, 37.000000)">
                        <path d="M5.68257401,8.0560534 C6.04285325,7.76915751 6.2234421,7.36321245 6.2234421,6.8369562 C6.2234421,6.34982213 6.04509938,5.97710987 5.68886317,5.7179781 C5.33217773,5.45884633 4.85644741,5.32928045 4.26122297,5.32928045 L1.64493081,5.32928045 L1.64493081,8.4855559 L4.26122297,8.4855559 C4.84836134,8.4855559 5.32184554,8.34294929 5.68257401,8.0560534 M5.18573006,3.85694084 C5.48356689,3.6293592 5.6322607,3.29913446 5.6322607,2.86752862 C5.6322607,2.43592278 5.48356689,2.10780138 5.18573006,1.88400576 C4.88789323,1.66021014 4.49167591,1.54831233 3.99707809,1.54831233 L1.64493081,1.54831233 L1.64493081,4.19852363 L3.99707809,4.19852363 C4.49167591,4.19852363 4.88789323,4.08494314 5.18573006,3.85694084 M5.49389909,0.72969151 C5.9296483,0.937922397 6.27150928,1.2286043 6.51858357,1.60131656 C6.76610709,1.97444948 6.89009347,2.39637995 6.89009347,2.86752862 C6.89009347,3.25244026 6.77868542,3.59780907 6.55676778,3.9040557 C6.33440092,4.21030234 6.03027492,4.4576554 5.64483902,4.64611487 C6.2149068,4.77147407 6.66368357,5.02303381 6.99072009,5.39995275 C7.31775661,5.77687169 7.48127487,6.25601306 7.48127487,6.8369562 C7.48127487,7.37120515 7.34471017,7.84992585 7.07247922,8.27395966 C6.79979904,8.69799347 6.41840618,9.02779754 5.9278514,9.26337188 C5.43729662,9.49894622 4.88160407,9.61673338 4.26122297,9.61673338 L0.990857766,9.61673338 C0.806225884,9.61673338 0.651242918,9.5578398 0.525459641,9.44005263 C0.399676363,9.32226546 0.336784725,9.17713484 0.336784725,9.00424011 L0.336784725,1.03004879 C0.336784725,0.849582021 0.399676363,0.70234806 0.525459641,0.588346907 C0.651242918,0.474766423 0.806225884,0.417555513 0.990857766,0.417555513 L3.99707809,0.417555513 C4.55861058,0.417555513 5.05770065,0.521881291 5.49389909,0.72969151" id="Fill-21"></path>
                        <path d="M12.1348967,0.588346907 C12.26068,0.474345755 12.415663,0.417555513 12.6002949,0.417555513 C12.793462,0.417555513 12.9502419,0.474345755 13.0719822,0.588346907 C13.1932732,0.70234806 13.2543679,0.849582021 13.2543679,1.03004879 L13.2543679,6.53070957 C13.2543679,6.94675067 13.373862,7.3198836 13.6128503,7.64968767 C13.8518385,7.97949174 14.1833673,8.23694084 14.6065381,8.42119362 C15.029709,8.60586708 15.5139746,8.69799347 16.059335,8.69799347 C16.5795387,8.69799347 17.0449368,8.60586708 17.4559786,8.42119362 C17.8665712,8.23694084 18.1873185,7.97949174 18.4177714,7.64968767 C18.6482244,7.3198836 18.7636755,6.94675067 18.7636755,6.53070957 L18.7636755,1.03004879 C18.7636755,0.849582021 18.8265671,0.70234806 18.9527996,0.588346907 C19.0781336,0.474345755 19.2335658,0.417555513 19.4177485,0.417555513 C19.6023804,0.417555513 19.7555664,0.474345755 19.8768575,0.588346907 C19.9985977,0.70234806 20.0596924,0.849582021 20.0596924,1.03004879 L20.0596924,6.53070957 C20.0596924,7.15876758 19.889885,7.72246331 19.5498209,8.22095544 C19.2102061,8.71944756 18.7362727,9.10856589 18.1284699,9.38704841 C17.5202179,9.66553093 16.830656,9.80519285 16.059335,9.80519285 C15.2628573,9.80519285 14.5521818,9.66553093 13.9273084,9.38704841 C13.3028843,9.10856589 12.8163726,8.7215509 12.4682224,8.22684479 C12.1205215,7.73171802 11.9462218,7.16676028 11.9462218,6.53070957 L11.9462218,1.03004879 C11.9462218,0.849582021 12.0095627,0.70234806 12.1348967,0.588346907" id="Fill-23"></path>
                        <path d="M31.8955844,8.63897368 C32.0128323,8.74119612 32.071681,8.87496869 32.071681,9.03945006 C32.071681,9.21234479 32.0128323,9.35158605 31.8955844,9.45759451 C31.7778872,9.56360296 31.6229042,9.61660718 31.4301862,9.61660718 L25.7447821,9.61660718 C25.559701,9.61660718 25.4051673,9.55813427 25.2789348,9.43992643 C25.1536007,9.32213926 25.0907091,9.17700864 25.0907091,9.00411391 L25.0907091,1.02992259 C25.0907091,0.84945582 25.1536007,0.702221859 25.2789348,0.588220707 C25.4051673,0.474640223 25.559701,0.417429312 25.7447821,0.417429312 L31.4301862,0.417429312 C31.6229042,0.417429312 31.7778872,0.470433538 31.8955844,0.57644199 C32.0128323,0.682450442 32.071681,0.82211237 32.071681,0.994586439 C32.071681,1.15990914 32.0128323,1.29326104 31.8955844,1.39506281 C31.7778872,1.49728525 31.6229042,1.5486068 31.4301862,1.5486068 L26.3988551,1.5486068 L26.3988551,4.41041433 L30.0088352,4.41041433 C30.1930179,4.41041433 30.3462039,4.46341856 30.4674949,4.56942701 C30.5892352,4.67543546 30.6503299,4.8108907 30.6503299,4.97579274 C30.6503299,5.14111544 30.5892352,5.27615002 30.4674949,5.38215847 C30.3462039,5.48816692 30.1930179,5.54117115 30.0088352,5.54117115 L26.3988551,5.54117115 L26.3988551,8.48585036 L31.4301862,8.48585036 C31.6229042,8.48585036 31.7778872,8.53717192 31.8955844,8.63897368" id="Fill-25"></path>
                        <path d="M43.2284779,0.588346907 C43.3542612,0.474345755 43.5096934,0.417555513 43.6938761,0.417555513 C43.878508,0.417555513 44.031694,0.474345755 44.1534343,0.588346907 C44.2747253,0.70234806 44.33582,0.849582021 44.33582,1.03004879 L44.33582,9.00424011 C44.33582,9.18512755 44.2747253,9.33194084 44.1534343,9.44594199 C44.031694,9.55994314 43.878508,9.61673338 43.6938761,9.61673338 C43.6017847,9.61673338 43.5074473,9.59906531 43.4108637,9.56372916 C43.3142801,9.52839301 43.2410563,9.47538878 43.190743,9.40471648 L37.7065921,2.5730607 L37.7065921,9.00424011 C37.7065921,9.17713484 37.6459466,9.32226546 37.5246556,9.44005263 C37.4024661,9.5578398 37.2456862,9.61673338 37.052519,9.61673338 C36.8683364,9.61673338 36.7151503,9.55994314 36.5934101,9.44594199 C36.4721191,9.33194084 36.4110243,9.18512755 36.4110243,9.00424011 L36.4110243,1.03004879 C36.4110243,0.849582021 36.4721191,0.70234806 36.5934101,0.588346907 C36.7151503,0.474345755 36.8683364,0.417555513 37.052519,0.417555513 C37.1450596,0.417555513 37.2371509,0.439430273 37.3292422,0.482338456 C37.4213336,0.525667307 37.4968035,0.578671533 37.5556521,0.641351133 L43.039803,7.47300692 L43.039803,1.03004879 C43.039803,0.849582021 43.1031439,0.70234806 43.2284779,0.588346907" id="Fill-27"></path>
                        <path d="M51.9765252,1.87790607 C51.4100512,2.19214541 50.9680128,2.62417192 50.6495116,3.17356493 C50.3305612,3.72379927 50.1710859,4.33629255 50.1710859,5.01104476 C50.1710859,5.6866383 50.3305612,6.29913158 50.6495116,6.84852459 C50.9680128,7.39833826 51.4122973,7.83204745 51.9828144,8.1500728 C52.5528821,8.46809816 53.1943768,8.6275315 53.9072985,8.6275315 C54.6197709,8.6275315 55.2612656,8.46809816 55.8317826,8.1500728 C56.4018504,7.83204745 56.8461349,7.39833826 57.1650854,6.84852459 C57.4835866,6.29913158 57.6426126,5.6866383 57.6426126,5.01104476 C57.6426126,4.33629255 57.4835866,3.72379927 57.1650854,3.17356493 C56.8461349,2.62417192 56.4036473,2.19214541 55.8380718,1.87790607 C55.2720471,1.5640874 54.6283062,1.40717806 53.9072985,1.40717806 C53.1858416,1.40717806 52.5425499,1.5640874 51.9765252,1.87790607 M56.4921448,0.900693239 C57.2508875,1.30116961 57.8420689,1.85855532 58.265689,2.57285036 C58.6888599,3.28798675 58.9008946,4.10029754 58.9008946,5.01104476 C58.9008946,5.92221264 58.6888599,6.73704745 58.265689,7.45554917 C57.8420689,8.1740509 57.2531337,8.73353995 56.4979848,9.13359566 C55.7437343,9.53407203 54.8798728,9.73473089 53.9072985,9.73473089 C52.934275,9.73473089 52.0686165,9.53407203 51.3098738,9.13359566 C50.5506819,8.73353995 49.9617466,8.1740509 49.5426188,7.45554917 C49.1230417,6.73704745 48.9137024,5.92221264 48.9137024,5.01104476 C48.9137024,4.10029754 49.1230417,3.28798675 49.5426188,2.57285036 C49.9617466,1.85855532 50.5506819,1.30116961 51.3098738,0.900693239 C52.0686165,0.500216865 52.934275,0.29955801 53.9072985,0.29955801 C54.8713375,0.29955801 55.7329529,0.500216865 56.4921448,0.900693239" id="Fill-29"></path>
                        <path d="M68.5860273,0.723928352 C69.0806251,0.998624856 69.4997529,1.3915292 69.84386,1.90180004 C69.9440374,2.05071667 69.9948,2.19206128 69.9948,2.32583385 C69.9948,2.49872858 69.9107947,2.64007318 69.7432334,2.74944698 C69.6506928,2.80455455 69.5419802,2.83231867 69.4161969,2.83231867 C69.2899644,2.83231867 69.1727164,2.80245121 69.0635545,2.74397829 C68.9548418,2.68508471 68.8708365,2.60473703 68.8124372,2.5025146 C68.5860273,2.14915309 68.3030149,1.87992528 67.9629508,1.69567249 C67.623336,1.51099904 67.1938759,1.41845198 66.6741214,1.41845198 C66.0366698,1.41845198 65.5209583,1.53497714 65.1269871,1.76634479 C64.7325667,1.99771245 64.5353565,2.33340588 64.5353565,2.77342509 C64.5353565,3.18189416 64.7119023,3.52305628 65.0640955,3.79817345 C65.4158394,4.07286996 66.0452051,4.2537574 66.9503954,4.33999443 C67.9571109,4.4338035 68.7369672,4.71859604 69.2899644,5.1939514 C69.84386,5.66888609 70.1205832,6.29484076 70.1205832,7.07265674 C70.1205832,7.63803515 69.957065,8.12306589 69.6295792,8.52732828 C69.3029919,8.93201133 68.8690396,9.23363062 68.3281715,9.43428947 C67.7873034,9.63452766 67.2064542,9.73464675 66.5860731,9.73464675 C65.7725249,9.73464675 65.0326497,9.56175202 64.3655491,9.21596254 C63.6993469,8.87059374 63.240238,8.41921648 62.9886714,7.86183077 C62.9464442,7.76718037 62.9253306,7.6893567 62.9253306,7.62583577 C62.9253306,7.50846927 62.9716008,7.40456416 63.0641414,7.31412044 C63.1562327,7.22367672 63.282016,7.16310046 63.4414912,7.13112966 C63.4666479,7.12355763 63.5084259,7.11977161 63.5672745,7.11977161 C63.7011438,7.11977161 63.8291732,7.15679043 63.9509135,7.23166942 C64.0722045,7.30612774 64.1624989,7.4066675 64.2213475,7.5320267 C64.3722875,7.83827334 64.6696751,8.09698444 65.1139596,8.30900134 C65.5586933,8.52143892 66.0492481,8.62744737 66.5860731,8.62744737 C67.2145403,8.62744737 67.7473223,8.49199212 68.1835208,8.22066097 C68.61927,7.95017115 68.8375938,7.57914157 68.8375938,7.10799289 C68.8375938,6.65998098 68.6525127,6.27717269 68.2841474,5.95914733 C67.9148836,5.64112197 67.3533511,5.44719381 66.5986515,5.37652151 C65.5586933,5.28229178 64.7406528,4.99749923 64.1454283,4.52214387 C63.5502039,4.04720918 63.2528163,3.45238398 63.2528163,2.73808894 C63.2528163,2.2358108 63.4055531,1.80168095 63.711476,1.43612005 C64.0178482,1.07097983 64.436976,0.792497311 64.969758,0.600251825 C65.5020908,0.40758567 66.0995614,0.311673262 66.7617205,0.311673262 C67.4831774,0.311673262 68.0909802,0.449231848 68.5860273,0.723928352" id="Fill-31"></path>
                        <path d="M85.3403149,6.57795063 L83.541614,2.38430676 L81.7047289,6.57795063 L85.3403149,6.57795063 Z M87.7427754,9.01614502 C87.7427754,9.18062639 87.6798838,9.321971 87.5541005,9.44017883 C87.427868,9.557966 87.2728851,9.61685959 87.0887024,9.61685959 C86.9624699,9.61685959 86.843425,9.58362678 86.7302201,9.51631982 C86.6170151,9.44985421 86.5348068,9.35730715 86.4849427,9.23951998 L85.7801071,7.59049962 L81.2649367,7.59049962 L80.547972,9.23951998 C80.4891234,9.35730715 80.4051181,9.44985421 80.2959562,9.51631982 C80.1872435,9.58362678 80.0699955,9.61685959 79.943763,9.61685959 C79.7595804,9.61685959 79.6063943,9.55586266 79.4851033,9.43428947 C79.3633631,9.31229562 79.3027175,9.16884768 79.3027175,9.00436631 C79.3027175,8.92570131 79.3233819,8.83525759 79.36516,8.73345582 L82.8996701,0.829936804 C83.0259026,0.5552403 83.2311988,0.417261045 83.5160081,0.417261045 C83.817888,0.417261045 84.0236335,0.5552403 84.1327954,0.829936804 L87.6798838,8.75701325 C87.7216618,8.85923569 87.7427754,8.94547272 87.7427754,9.01614502 L87.7427754,9.01614502 Z" id="Fill-33"></path>
                        <path d="M91.8808656,0.588346907 C92.0066489,0.474345755 92.1616318,0.417555513 92.3462637,0.417555513 C92.5394309,0.417555513 92.6962108,0.474345755 92.817951,0.588346907 C92.939242,0.70234806 93.0003367,0.849582021 93.0003367,1.03004879 L93.0003367,9.00424011 C93.0003367,9.17713484 92.939242,9.32226546 92.817951,9.44005263 C92.6962108,9.5578398 92.5394309,9.61673338 92.3462637,9.61673338 C92.1616318,9.61673338 92.0066489,9.5578398 91.8808656,9.44005263 C91.7555315,9.32226546 91.6921907,9.17713484 91.6921907,9.00424011 L91.6921907,1.03004879 C91.6921907,0.849582021 91.7555315,0.70234806 91.8808656,0.588346907" id="Fill-35"></path>
                        <path d="M100.949615,4.94045659 C101.520132,4.94045659 101.989124,4.78943661 102.358388,4.48697599 C102.727202,4.18493604 102.911834,3.79413504 102.911834,3.31499366 C102.911834,2.79673012 102.727202,2.37269631 102.358388,2.04289224 C101.989124,1.71308817 101.520132,1.5486068 100.949615,1.5486068 L99.3395893,1.5486068 L99.3395893,4.94045659 L100.949615,4.94045659 Z M104.534439,9.06300749 C104.534439,9.2203375 104.478285,9.35158605 104.36508,9.45759451 C104.251876,9.56360296 104.098689,9.61660718 103.905522,9.61660718 C103.662042,9.61660718 103.473367,9.51859143 103.339498,9.32213926 L101.176025,6.07121341 L100.949615,6.07121341 L99.3395893,6.07121341 L99.3395893,9.00411391 C99.3395893,9.17700864 99.2784946,9.32213926 99.1572036,9.43992643 C99.0354633,9.55813427 98.8786834,9.61660718 98.6855163,9.61660718 C98.5008844,9.61660718 98.3459014,9.55813427 98.2201181,9.43992643 C98.0947841,9.32213926 98.0314432,9.17700864 98.0314432,9.00411391 L98.0314432,1.02992259 C98.0314432,0.84945582 98.0947841,0.702221859 98.2201181,0.588220707 C98.3459014,0.474640223 98.5008844,0.417429312 98.6855163,0.417429312 L100.949615,0.417429312 C101.569996,0.417429312 102.125689,0.539423166 102.616244,0.782569535 C103.106798,1.02613657 103.488191,1.36771936 103.760871,1.8073179 C104.033102,2.24733711 104.169667,2.74961525 104.169667,3.31499366 C104.169667,3.87280004 104.018727,4.36750615 103.716847,4.79911199 C103.414967,5.23113849 103.003926,5.55715655 102.484171,5.77674549 L104.408655,8.67430983 C104.492661,8.8000897 104.534439,8.92965559 104.534439,9.06300749 L104.534439,9.06300749 Z" id="Fill-37"></path>
                        <path d="M115.301577,8.63897368 C115.418825,8.74119612 115.477674,8.87496869 115.477674,9.03945006 C115.477674,9.21234479 115.418825,9.35158605 115.301577,9.45759451 C115.18388,9.56360296 115.028897,9.61660718 114.836179,9.61660718 L109.150775,9.61660718 C108.965694,9.61660718 108.81116,9.55813427 108.684927,9.43992643 C108.559593,9.32213926 108.496702,9.17700864 108.496702,9.00411391 L108.496702,1.02992259 C108.496702,0.84945582 108.559593,0.702221859 108.684927,0.588220707 C108.81116,0.474640223 108.965694,0.417429312 109.150775,0.417429312 L114.836179,0.417429312 C115.028897,0.417429312 115.18388,0.470433538 115.301577,0.57644199 C115.418825,0.682450442 115.477674,0.82211237 115.477674,0.994586439 C115.477674,1.15990914 115.418825,1.29326104 115.301577,1.39506281 C115.18388,1.49728525 115.028897,1.5486068 114.836179,1.5486068 L109.804848,1.5486068 L109.804848,4.41041433 L113.414828,4.41041433 C113.599011,4.41041433 113.752197,4.46341856 113.873488,4.56942701 C113.995228,4.67543546 114.056323,4.8108907 114.056323,4.97579274 C114.056323,5.14111544 113.995228,5.27615002 113.873488,5.38215847 C113.752197,5.48816692 113.599011,5.54117115 113.414828,5.54117115 L109.804848,5.54117115 L109.804848,8.48585036 L114.836179,8.48585036 C115.028897,8.48585036 115.18388,8.53717192 115.301577,8.63897368" id="Fill-39"></path>
                        <path d="M124.936262,0.723928352 C125.430859,0.998624856 125.849987,1.3915292 126.194094,1.90180004 C126.294272,2.05071667 126.345034,2.19206128 126.345034,2.32583385 C126.345034,2.49872858 126.261029,2.64007318 126.093468,2.74944698 C126.000927,2.80455455 125.892215,2.83231867 125.766431,2.83231867 C125.640199,2.83231867 125.522951,2.80245121 125.413789,2.74397829 C125.305076,2.68508471 125.221071,2.60473703 125.162672,2.5025146 C124.936262,2.14915309 124.653249,1.87992528 124.313185,1.69567249 C123.97357,1.51099904 123.54411,1.41845198 123.024356,1.41845198 C122.386904,1.41845198 121.871193,1.53497714 121.477221,1.76634479 C121.082801,1.99771245 120.885591,2.33340588 120.885591,2.77342509 C120.885591,3.18189416 121.062137,3.52305628 121.41433,3.79817345 C121.766074,4.07286996 122.395439,4.2537574 123.30063,4.33999443 C124.307345,4.4338035 125.087202,4.71859604 125.640199,5.1939514 C126.194094,5.66888609 126.470818,6.29484076 126.470818,7.07265674 C126.470818,7.63803515 126.307299,8.12306589 125.979814,8.52732828 C125.653226,8.93201133 125.219274,9.23363062 124.678406,9.43428947 C124.137538,9.63452766 123.556689,9.73464675 122.936307,9.73464675 C122.122759,9.73464675 121.382884,9.56175202 120.715783,9.21596254 C120.049581,8.87059374 119.590472,8.41921648 119.338906,7.86183077 C119.296679,7.76718037 119.275565,7.6893567 119.275565,7.62583577 C119.275565,7.50846927 119.321835,7.40456416 119.414376,7.31412044 C119.506467,7.22367672 119.63225,7.16310046 119.791726,7.13112966 C119.816882,7.12355763 119.85866,7.11977161 119.917509,7.11977161 C120.051378,7.11977161 120.179408,7.15679043 120.301148,7.23166942 C120.422439,7.30612774 120.512733,7.4066675 120.571582,7.5320267 C120.722522,7.83827334 121.019909,8.09698444 121.464194,8.30900134 C121.908928,8.52143892 122.399482,8.62744737 122.936307,8.62744737 C123.564775,8.62744737 124.097557,8.49199212 124.533755,8.22066097 C124.969504,7.95017115 125.187828,7.57914157 125.187828,7.10799289 C125.187828,6.65998098 125.002747,6.27717269 124.634382,5.95914733 C124.265118,5.64112197 123.703585,5.44719381 122.948886,5.37652151 C121.908928,5.28229178 121.090887,4.99749923 120.495663,4.52214387 C119.900438,4.04720918 119.603051,3.45238398 119.603051,2.73808894 C119.603051,2.2358108 119.755787,1.80168095 120.06171,1.43612005 C120.368083,1.07097983 120.78721,0.792497311 121.319992,0.600251825 C121.852325,0.40758567 122.449796,0.311673262 123.111955,0.311673262 C123.833412,0.311673262 124.441215,0.449231848 124.936262,0.723928352" id="Fill-41"></path>
                    </g>
                </g>
            </g>
        </g>
    </g>
</svg>