<svg xmlns="http://www.w3.org/2000/svg" xmlns:xlink="http://www.w3.org/1999/xlink" viewBox="0 0 230.93 91.94"><defs><style>.cls-1{fill:none;}.cls-2{clip-path:url(#clip-path);}.cls-3{fill:#d4cfc4;}.cls-4{clip-path:url(#clip-path-2);}.cls-5{clip-path:url(#clip-path-3);}.cls-6{fill:#e1741e;}.cls-7{clip-path:url(#clip-path-4);}.cls-8{clip-path:url(#clip-path-5);}.cls-9{fill:#bcb3ac;}.cls-10{clip-path:url(#clip-path-6);}.cls-11{clip-path:url(#clip-path-7);}.cls-12{clip-path:url(#clip-path-8);}.cls-13{clip-path:url(#clip-path-9);}.cls-14{fill:#d0a27b;}.cls-15{clip-path:url(#clip-path-10);}.cls-16{clip-path:url(#clip-path-11);}.cls-17{clip-path:url(#clip-path-12);}.cls-18{fill:#15151d;}.cls-19{font-size:24.06px;fill:#0a0a0a;font-family:SourceSansPro-Semibold, Source Sans Pro;font-weight:700;}.cls-20{letter-spacing:-0.02em;}.cls-21{letter-spacing:0em;}.cls-22{letter-spacing:-0.03em;}</style><clipPath id="clip-path"><path class="cls-1" d="M74.07,46.3a4,4,0,0,1,3.87,2.85c.1-1.09.17-2.15.17-3.28a32.28,32.28,0,0,0-64.55,0v.43Z"/></clipPath><clipPath id="clip-path-2"><path class="cls-1" d="M17.6,46.3a4,4,0,0,0-3.87,2.85c-.1-1.09-.17-2.15-.17-3.28a32.28,32.28,0,0,1,64.55,0v.43Z"/></clipPath><clipPath id="clip-path-3"><circle class="cls-1" cx="32.51" cy="28.8" r="6.31"/></clipPath><clipPath id="clip-path-4"><circle class="cls-1" cx="54.25" cy="32.31" r="9.82"/></clipPath><clipPath id="clip-path-5"><path class="cls-1" d="M39.39,47.54l1.92.13,3.22-4,1.75,1,3.36,1.24L52,44.63l7.63-8.11,2.66,3.55,1.28-1h1.68l4.24,5.9,3-.5,5.29,6,.29,0C76.54,67.69,63.65,78.61,45.84,78.61A32.23,32.23,0,0,1,13.56,46.44c0-.18,1.64-.2,4.39-.11l4.59-8h5.31L30.48,47l3.61.22,3.18-.82Z"/></clipPath><clipPath id="clip-path-6"><path class="cls-1" d="M45.85,77.14c-13.43,0-24.91-9.29-29.48-21,.91,0,1.86,0,2.84,0a5.9,5.9,0,0,0,1.59.2,12.77,12.77,0,0,0,2-.27,4.13,4.13,0,0,1,.64,0,.89.89,0,0,0-.07.33c0,1.51,1,2.69,3.24,2.69s3.3-1,3.4-2.39c.34,0,1.3,0,1.64,0,9.13,1,9.62,2.67,9.62,2.74a3.86,3.86,0,0,1-2,2.83c-3.92,2.68-4.86,4-4.49,5.69.44,2,2.67,2,6.46,3.08,1,.3,2.4.47,3.72.74s3,.64,4.43.9c2.71.54,5.45,1.07,7.61,1.74C56.7,75.73,49.77,77.14,45.85,77.14Z"/></clipPath><clipPath id="clip-path-7"><path class="cls-1" d="M26.89,50.55s-2.1,7.07-2.1,7.21c0,.67.94,1.21,2.1,1.21s2.1-.54,2.1-1.21Z"/></clipPath><clipPath id="clip-path-8"><path class="cls-1" d="M21.28,47.74s-2.1,7.07-2.1,7.2c0,.68.95,1.22,2.1,1.22s2.1-.54,2.1-1.22C23.38,54.81,21.28,47.74,21.28,47.74Z"/></clipPath><clipPath id="clip-path-9"><path class="cls-1" d="M65.48,48.5c0,2.74-12.63,2.74-12.63,0s2.82-5,6.3-5S65.48,45.73,65.48,48.5Z"/></clipPath><clipPath id="clip-path-10"><path class="cls-1" d="M71.09,55.51c0,2.74-12.63,2.74-12.63,0s2.82-5,6.3-5S71.09,52.74,71.09,55.51Z"/></clipPath><clipPath id="clip-path-11"><path class="cls-1" d="M58.46,63.93c0,2.74-12.63,2.74-12.63,0s2.82-5,6.3-5S58.46,61.2,58.46,63.93Z"/></clipPath><clipPath id="clip-path-12"><path class="cls-1" d="M33.44,23.41a5.12,5.12,0,1,1-5.12,5.12A5.14,5.14,0,0,1,33.44,23.41Zm0,12.93a7.81,7.81,0,1,0-7.81-7.81A7.84,7.84,0,0,0,33.44,36.34Zm39.64,6.23-2.9.51L66,37.28H64.66A11.51,11.51,0,1,0,51.36,43l-.17.17L49.54,44l-2.69-1-2.66-1.55-3.74,4.71-3-1.65L31.69,46l-2.9-9.5H21.72l-5.15,9-1.58,0a31,31,0,0,1,62,.4v1ZM57.42,62.91c-.47.34-2.22.88-5.12.88s-4.65-.54-5.12-.88c.13-1.89,2.42-3.43,5.12-3.43S57.28,61,57.42,62.91Zm7.85-11.48c2.69,0,5,1.55,5.12,3.43h0c-.47.34-2.26.88-5.12.88h0c-2.86,0-4.65-.54-5.12-.88h0C60.28,53,62.57,51.42,65.26,51.42Zm-1.38-3.3c-.47.34-2.26.88-5.12.88h0c-2.86,0-4.65-.54-5.12-.88h0c.13-1.89,2.42-3.43,5.12-3.43s5,1.55,5.12,3.43ZM61.83,36.71l-2-2.73-6.26,6.7a8.8,8.8,0,1,1,9.73-8.76A8.69,8.69,0,0,1,61.83,36.71ZM60.38,73.38c-2.53-1.25-6.36-2-10.41-2.8-1.41-.27-2.9-.57-4.31-.88s-2.59-.54-3.74-.74a22.94,22.94,0,0,1-4.71-1.18c.24-.37,1-1.25,3.6-3,.94-.64,3.81-2.59,3-5.09-.71-2.32-4.38-3.74-11.85-4.55l-2.12-.2c-.37-1.11-.91-2.69-1.68-5L26.91,46.2l-1.28,3.74c-.44,1.25-.77,2.26-1.08,3.13-.34-1.08-.94-2.83-2-5.86l-1.18-3.81L20.1,47.15c-1.75,5.12-2.26,6.63-2.39,7.21H16.16a33,33,0,0,1-1.08-6.1l3.1-.1,5.12-9h3.54L29.9,49.27l7.21-1.85,1.65.91-3.5,4.41,2.12,1.68L44.86,45l.88.51,4,1.48L51.52,46A5.32,5.32,0,0,0,51,48.33c0,.81.51,2.53,4.34,3.17A2.53,2.53,0,0,1,57.45,54v4.38a7.73,7.73,0,0,0-1.82-.94h0c-1.48-.47-2.86-1.18-3.3-2.63a3.68,3.68,0,0,1-2.49,2.32c-3.13.84-5.39,3.2-5.39,6,0,1,.77,3.4,7.81,3.4s7.81-2.39,7.81-3.4V57.82a9.1,9.1,0,0,0,1.65.4,2.53,2.53,0,0,1,2.12,2.49v3a1.39,1.39,0,0,0,1.21,1.41,1.36,1.36,0,0,0,1.48-1.35v-3.1a2.53,2.53,0,0,1,2.12-2.49C72.54,57.59,73,55.9,73,55.06a6.13,6.13,0,0,0-3.67-5.32h0s-.07,0-.13,0a7.54,7.54,0,0,0-1.21-.47A4.17,4.17,0,0,1,66.54,48,6.51,6.51,0,0,0,62,42.63h0c-.17-.07-.34-.1-.51-.17A4,4,0,0,1,58.73,40c-.4,1.38-1.58,2.09-3.1,2.56h0a1.41,1.41,0,0,0-.34.13l4.21-4.48L62,41.66l2-1.62h.51l4.38,6,3.1-.54,4.55,5.15A31,31,0,0,1,60.38,73.38ZM26.07,57.28,27,54.56l.91,2.73a3.14,3.14,0,0,1-1.82,0Zm-5.56-2.86c.2-.61.51-1.58.88-2.63.37,1.08.71,2.05.88,2.66C21.65,54.45,21.08,54.42,20.51,54.42ZM46,76.95A31,31,0,0,1,17,57.08c.88,0,1.82,0,2.76,0a5.57,5.57,0,0,0,1.55.2,4.88,4.88,0,0,0,1.25-.13,4.29,4.29,0,0,1,.64,0,.9.9,0,0,0-.07.34c0,1.48,1.58,2.56,3.77,2.56s3.67-1,3.74-2.42l1,.1c9,1,9.56,2.59,9.56,2.66s-.17.84-2,2.05c-3.81,2.63-5.12,4.21-4.78,5.86.4,2,3,2.49,6.94,3.23,1.11.2,2.36.44,3.64.74l4.38.91c2.63.54,5.32,1.08,7.48,1.72A31.13,31.13,0,0,1,46,76.95Zm0-64.66A33.68,33.68,0,1,0,79.64,46,33.73,33.73,0,0,0,46,12.29Z"/></clipPath></defs><title>decentraland</title><g id="Layer_2" data-name="Layer 2"><g id="Capa_1" data-name="Capa 1"><g class="cls-2"><rect class="cls-3" x="4.21" y="4.71" width="83.25" height="53.79"/></g><g class="cls-4"><rect class="cls-3" x="4.21" y="4.71" width="83.25" height="53.79"/></g><g class="cls-5"><rect class="cls-6" x="16.84" y="13.13" width="31.34" height="31.34"/></g><g class="cls-7"><rect class="cls-6" x="35.08" y="13.13" width="38.35" height="38.35"/></g><g class="cls-8"><rect class="cls-9" x="4.21" y="27.16" width="83.25" height="60.8"/></g><g class="cls-10"><rect class="cls-3" x="7.01" y="46.74" width="59.4" height="39.76"/></g><g class="cls-11"><rect class="cls-6" x="15.43" y="41.19" width="22.92" height="27.13"/></g><g class="cls-12"><rect class="cls-6" x="9.82" y="38.39" width="22.92" height="27.13"/></g><g class="cls-13"><rect class="cls-14" x="43.5" y="34.18" width="31.34" height="25.72"/></g><g class="cls-15"><rect class="cls-14" x="49.11" y="41.19" width="31.34" height="25.72"/></g><g class="cls-16"><rect class="cls-14" x="36.48" y="49.61" width="31.34" height="25.72"/></g><g class="cls-17"><rect class="cls-18" x="2.94" y="2.94" width="86.06" height="86.06"/><path d="M91.94,91.94H0V0H91.94ZM5.88,86.06H86.06V5.88H5.88Z"/></g><text class="cls-19" transform="translate(91.82 52.75)">De<tspan class="cls-20" x="27.18" y="0">c</tspan><tspan class="cls-21" x="37.72" y="0">ent</tspan><tspan class="cls-22" x="72.07" y="0">r</tspan><tspan x="80.39" y="0">aland</tspan></text></g></g></svg>