<svg xmlns="http://www.w3.org/2000/svg" viewBox="0 0 73.95 75.25"><defs><style>.cls-1{fill:#1abc9c;}.cls-2,.cls-3{fill:#546979;}.cls-3{fill-rule:evenodd;}</style></defs><title>maker</title><g id="Layer_2" data-name="Layer 2"><g id="Capa_1" data-name="Capa 1"><g id="CI-all"><g id="mkr-logo-typo-bicolor"><g id="logo-maker"><path id="Shape" class="cls-1" d="M33.43,50V24.22a1.73,1.73,0,0,0-.69-1.38L2.83.35A1.73,1.73,0,0,0,.07,1.73V50a1.73,1.73,0,1,0,3.45,0V1.73L.76,3.11,30.66,25.6,30,24.22V50a1.73,1.73,0,1,0,3.45,0Z"/><path class="cls-2" d="M42.63,50V24.22l-.69,1.38L71.84,3.11,69.08,1.73V50a1.73,1.73,0,0,0,3.45,0V1.73A1.73,1.73,0,0,0,69.77.35L39.86,22.84a1.73,1.73,0,0,0-.69,1.38V50a1.73,1.73,0,0,0,3.45,0Z"/><path id="Maker" class="cls-3" d="M1.2,63.57l5.43,9h0l0,.05,0,0,0,0,.05,0h.05l.06,0,.05,0h.34l.05,0,.06,0h.05l.05,0,0,0,0,0,0-.05h0l5.43-9V74.64a.61.61,0,0,0,.17.43.6.6,0,0,0,.42.17.58.58,0,0,0,.42-.17.59.59,0,0,0,.18-.43V61.41a.55.55,0,0,0-.44-.58.55.55,0,0,0-.68.27L7.15,71l-6-9.94a.55.55,0,0,0-.68-.27.55.55,0,0,0-.44.58V74.64a.61.61,0,0,0,.17.43.61.61,0,0,0,.43.17A.6.6,0,0,0,1,75.08a.61.61,0,0,0,.17-.43Zm20.86,7.09L25.25,63l3.19,7.69Zm-2.3,4.59a.55.55,0,0,0,.56-.37l1.25-3h7.38l1.25,3a.59.59,0,0,0,.79.32.55.55,0,0,0,.32-.32.56.56,0,0,0,0-.46L29.9,71h0l-4.09-9.86L25.76,61l0,0,0-.05-.05,0,0,0a.54.54,0,0,0-.22-.09h-.23a.54.54,0,0,0-.21.09l0,0-.05,0,0,.05,0,0-.05.11L20.6,71h0L19.2,74.41a.56.56,0,0,0,0,.46.55.55,0,0,0,.32.32.56.56,0,0,0,.23.05ZM36.83,75a.56.56,0,0,0,.18-.42V70.69l1.8-1.9,6,6.28a.59.59,0,0,0,.43.18.58.58,0,0,0,.41-.16.59.59,0,0,0,.19-.42.58.58,0,0,0-.17-.42l-6-6.32,5.81-6.1a.57.57,0,0,0,.16-.43.55.55,0,0,0-.18-.41A.61.61,0,0,0,45,60.8a.59.59,0,0,0-.41.19l-7.57,8v-7.6a.6.6,0,0,0-.61-.6.59.59,0,0,0-.6.6v13.2A.58.58,0,0,0,36,75a.58.58,0,0,0,.42.18.56.56,0,0,0,.42-.18Zm22.27.28a.61.61,0,0,0,0-1.21H51.68V68.61h5.55a.61.61,0,0,0,0-1.21H51.68V62l7.42,0a.58.58,0,0,0,.42-.17.59.59,0,0,0,.18-.43.58.58,0,0,0-.18-.42.56.56,0,0,0-.42-.18l-8,0a.53.53,0,0,0-.42.18.56.56,0,0,0-.18.42V74.64a.62.62,0,0,0,.61.61Zm12.79-8.67a3.06,3.06,0,0,1-2.09.81h-4V62h4a3.1,3.1,0,0,1,2.14.8,2.49,2.49,0,0,1,0,3.8Zm-6.74-5.79a.6.6,0,0,0-.42.17.58.58,0,0,0-.17.42V74.55a.59.59,0,0,0,.6.6.6.6,0,0,0,.61-.6v-6h3.38l3.12,6.33a.55.55,0,0,0,.54.33.58.58,0,0,0,.26-.06.59.59,0,0,0,.3-.34.56.56,0,0,0,0-.45l-2.88-5.87a4.14,4.14,0,0,0,2.5-1.31,3.68,3.68,0,0,0-.22-5.28,4.27,4.27,0,0,0-3-1.14Z"/></g></g></g></g></g></svg>