<svg xmlns="http://www.w3.org/2000/svg" viewBox="0 0 142.65 57.19"><defs><style>.cls-1{fill:#4956fa;}.cls-2{fill:#0a0a0a;}</style></defs><title>rcn</title><g id="Layer_2" data-name="Layer 2"><g id="Capa_1" data-name="Capa 1"><path class="cls-1" d="M32.35,57.19A28.6,28.6,0,1,1,60.95,28.6,28.63,28.63,0,0,1,32.35,57.19Zm0-53.73A25.13,25.13,0,1,0,57.48,28.6,25.16,25.16,0,0,0,32.35,3.47Z"/><path class="cls-1" d="M34.92,7.33,32.47,9.78l7.74,7.74a59.15,59.15,0,0,0-13.95,2A45,45,0,0,0,12,26.15,36.21,36.21,0,0,0,.17,40.25,1.74,1.74,0,0,0,1,42.56a1.76,1.76,0,0,0,.74.17,1.73,1.73,0,0,0,1.57-1C7.74,32.38,15.74,26,27.08,22.92A55.81,55.81,0,0,1,40.21,21L34,27.23l2.45,2.45L46.84,19.25Z"/><path class="cls-1" d="M63.71,14.63a1.72,1.72,0,0,0-2.3.83C57,24.82,49,31.15,37.62,34.28A55.84,55.84,0,0,1,24.5,36.21L30.74,30l-2.45-2.45L17.86,37.95,29.78,49.87l2.45-2.45-7.74-7.74a59.15,59.15,0,0,0,14-2A44.92,44.92,0,0,0,52.73,31a36.15,36.15,0,0,0,11.81-14.1A1.73,1.73,0,0,0,63.71,14.63Z"/><path class="cls-2" d="M81.29,46.31a2.74,2.74,0,0,1-2,.91A3,3,0,0,1,78,46.93a3.35,3.35,0,0,1-1-.78A3.64,3.64,0,0,1,76.26,45,3.7,3.7,0,0,1,76,43.67a3.63,3.63,0,0,1,.25-1.34,3.55,3.55,0,0,1,.69-1.11,3.19,3.19,0,0,1,1-.75,3.07,3.07,0,0,1,1.32-.28A3.13,3.13,0,0,1,81,40.6a2.69,2.69,0,0,1,1,1.1l-.84.6a2,2,0,0,0-.78-.85,2.14,2.14,0,0,0-1.09-.29,1.9,1.9,0,0,0-.89.21,2.2,2.2,0,0,0-.68.56,2.47,2.47,0,0,0-.43.81,3,3,0,0,0-.15,1,2.78,2.78,0,0,0,.17,1,2.6,2.6,0,0,0,.47.8,2.22,2.22,0,0,0,.71.54,2,2,0,0,0,.89.2,2.22,2.22,0,0,0,1-.24,3,3,0,0,0,.93-.77v-.74H79.83v-.81h2.37v3.51h-.92Z"/><path class="cls-2" d="M83.33,40H84.4v5.65a.64.64,0,0,0,.14.44.52.52,0,0,0,.41.16,1,1,0,0,0,.25,0l.26-.09.16.84a2.51,2.51,0,0,1-.56.17,3,3,0,0,1-.57.06,1.18,1.18,0,0,1-.86-.3,1.14,1.14,0,0,1-.31-.86Z"/><path class="cls-2" d="M88.62,47.26A2.7,2.7,0,0,1,87.53,47a2.51,2.51,0,0,1-.82-.58,2.58,2.58,0,0,1-.53-.84,2.89,2.89,0,0,1-.19-1,2.86,2.86,0,0,1,.19-1,2.51,2.51,0,0,1,.54-.84,2.57,2.57,0,0,1,.83-.58A2.6,2.6,0,0,1,88.62,42a2.59,2.59,0,0,1,1.91.79,2.46,2.46,0,0,1,.53.84,2.77,2.77,0,0,1,.18,1,2.8,2.8,0,0,1-.18,1,2.48,2.48,0,0,1-.53.84,2.61,2.61,0,0,1-.83.58A2.66,2.66,0,0,1,88.62,47.26ZM87.1,44.63a1.86,1.86,0,0,0,.12.68,1.7,1.7,0,0,0,.32.54,1.54,1.54,0,0,0,.48.36,1.42,1.42,0,0,0,1.2,0,1.49,1.49,0,0,0,.48-.37A1.82,1.82,0,0,0,90,45.3a2,2,0,0,0,.11-.68,2,2,0,0,0-.11-.68,1.81,1.81,0,0,0-.32-.55,1.53,1.53,0,0,0-.48-.37,1.42,1.42,0,0,0-.6-.13A1.34,1.34,0,0,0,88,43a1.57,1.57,0,0,0-.48.37,1.73,1.73,0,0,0-.33.55A1.85,1.85,0,0,0,87.1,44.63Z"/><path class="cls-2" d="M94.89,47.26a2.06,2.06,0,0,1-1.81-1v.93h-.94V40h1.07v3a2.33,2.33,0,0,1,.75-.77A2,2,0,0,1,95,42a1.93,1.93,0,0,1,.92.22,2.23,2.23,0,0,1,.72.59,2.68,2.68,0,0,1,.46.85,3.06,3.06,0,0,1,.16,1,2.76,2.76,0,0,1-.69,1.86,2.37,2.37,0,0,1-.77.56A2.27,2.27,0,0,1,94.89,47.26Zm-.28-.92a1.46,1.46,0,0,0,.64-.14,1.56,1.56,0,0,0,.5-.38,1.61,1.61,0,0,0,.32-.54,1.71,1.71,0,0,0,.12-.65,2,2,0,0,0-.11-.66,1.83,1.83,0,0,0-.31-.56,1.59,1.59,0,0,0-.48-.38,1.32,1.32,0,0,0-.61-.15,1.34,1.34,0,0,0-.89.32,2.14,2.14,0,0,0-.59.78v1.35a1,1,0,0,0,.21.41,1.85,1.85,0,0,0,.34.32,1.63,1.63,0,0,0,.42.21A1.37,1.37,0,0,0,94.6,46.35Z"/><path class="cls-2" d="M99.69,47.26a2,2,0,0,1-.69-.12,1.69,1.69,0,0,1-.54-.34,1.54,1.54,0,0,1-.36-.51,1.5,1.5,0,0,1-.13-.63,1.36,1.36,0,0,1,.15-.65,1.56,1.56,0,0,1,.44-.51,2.12,2.12,0,0,1,.68-.33,3,3,0,0,1,.87-.12,4.11,4.11,0,0,1,.71.06,3.65,3.65,0,0,1,.63.17v-.35a1.18,1.18,0,0,0-.32-.88,1.28,1.28,0,0,0-.93-.32,2.2,2.2,0,0,0-.8.15,4.08,4.08,0,0,0-.82.43l-.33-.68a3.63,3.63,0,0,1,2-.66,2.34,2.34,0,0,1,1.64.54,2,2,0,0,1,.59,1.54V45.9c0,.23.09.35.28.35v.91l-.27,0h-.22a.7.7,0,0,1-.48-.16.67.67,0,0,1-.21-.4l0-.32a2.3,2.3,0,0,1-.84.69A2.49,2.49,0,0,1,99.69,47.26Zm.29-.79a2,2,0,0,0,.74-.14,1.32,1.32,0,0,0,.54-.4.5.5,0,0,0,.2-.37v-.67a3.22,3.22,0,0,0-.58-.17,3.25,3.25,0,0,0-.6-.06,1.61,1.61,0,0,0-.94.25.76.76,0,0,0-.37.66.83.83,0,0,0,.28.64A1,1,0,0,0,100,46.47Z"/><path class="cls-2" d="M103.72,40h1.07v5.65a.64.64,0,0,0,.14.44.53.53,0,0,0,.41.16,1,1,0,0,0,.25,0l.27-.09L106,47a2.42,2.42,0,0,1-.56.17,3.11,3.11,0,0,1-.58.06,1.18,1.18,0,0,1-.86-.3,1.13,1.13,0,0,1-.31-.86Z"/><path class="cls-2" d="M108.83,40h1.08v5.65a.61.61,0,0,0,.15.44.51.51,0,0,0,.41.16,1,1,0,0,0,.25,0l.27-.09.15.84a2.35,2.35,0,0,1-.55.17,3.16,3.16,0,0,1-.58.06,1.17,1.17,0,0,1-.86-.3,1.14,1.14,0,0,1-.31-.86Z"/><path class="cls-2" d="M114.2,47.26a2.69,2.69,0,0,1-1.08-.21,2.59,2.59,0,0,1-.84-.57,2.64,2.64,0,0,1-.53-.84,2.81,2.81,0,0,1,0-2,2.7,2.7,0,0,1,.53-.85,2.5,2.5,0,0,1,.84-.58,2.73,2.73,0,0,1,1.09-.21,2.6,2.6,0,0,1,1.9.79,2.44,2.44,0,0,1,.52.83,2.79,2.79,0,0,1,.18,1c0,.08,0,.15,0,.22s0,.13,0,.17H112.7a1.7,1.7,0,0,0,.16.62,1.65,1.65,0,0,0,.34.47,1.53,1.53,0,0,0,.48.31,1.46,1.46,0,0,0,.56.11,1.62,1.62,0,0,0,.43-.05,1.56,1.56,0,0,0,.38-.15,1.42,1.42,0,0,0,.32-.25,1.23,1.23,0,0,0,.21-.32l.92.26a2.13,2.13,0,0,1-.87.94A2.71,2.71,0,0,1,114.2,47.26Zm1.55-3a1.77,1.77,0,0,0-.16-.6,1.58,1.58,0,0,0-.34-.47,1.44,1.44,0,0,0-.48-.29,1.49,1.49,0,0,0-.57-.11,1.47,1.47,0,0,0-.57.11,1.54,1.54,0,0,0-.47.29,1.44,1.44,0,0,0-.33.47,1.76,1.76,0,0,0-.16.6Z"/><path class="cls-2" d="M122.21,47.16h-1.08V44.31a1.88,1.88,0,0,0-.23-1,.78.78,0,0,0-.68-.33,1.31,1.31,0,0,0-.47.09,1.65,1.65,0,0,0-.44.25,2.08,2.08,0,0,0-.36.38,1.69,1.69,0,0,0-.25.48v3h-1.07v-5.1h1v1a2.09,2.09,0,0,1,.84-.82,2.63,2.63,0,0,1,1.23-.29,1.49,1.49,0,0,1,.75.17,1.19,1.19,0,0,1,.46.45,1.92,1.92,0,0,1,.24.67,4.69,4.69,0,0,1,.07.79Z"/><path class="cls-2" d="M125.54,47.26a2.2,2.2,0,0,1-1-.21,2.49,2.49,0,0,1-.76-.57,2.66,2.66,0,0,1-.5-.85,3,3,0,0,1-.18-1,2.94,2.94,0,0,1,.17-1,2.75,2.75,0,0,1,.48-.84,2.32,2.32,0,0,1,.72-.57,2.12,2.12,0,0,1,2,.09,2.24,2.24,0,0,1,.73.76V40h1.07V45.9a.42.42,0,0,0,.07.26.3.3,0,0,0,.23.09v.91l-.27,0h-.17a.8.8,0,0,1-.52-.17.58.58,0,0,1-.23-.43l0-.38a2.07,2.07,0,0,1-.77.75A2.19,2.19,0,0,1,125.54,47.26Zm.26-.92a1.55,1.55,0,0,0,.47-.08,1.75,1.75,0,0,0,.43-.22,1.53,1.53,0,0,0,.34-.32,1.19,1.19,0,0,0,.2-.4V44a1.61,1.61,0,0,0-.25-.45,1.76,1.76,0,0,0-.37-.35,1.56,1.56,0,0,0-.44-.22,1.37,1.37,0,0,0-.46-.08,1.23,1.23,0,0,0-.59.15,1.51,1.51,0,0,0-.46.39,1.83,1.83,0,0,0-.3.56,1.75,1.75,0,0,0-.12.64,1.71,1.71,0,0,0,.13.66,1.7,1.7,0,0,0,.83.92A1.31,1.31,0,0,0,125.8,46.35Z"/><path class="cls-2" d="M129.74,41.22V40h1.07v1.18Zm0,5.94v-5.1h1.07v5.1Z"/><path class="cls-2" d="M136.56,47.16h-1.08V44.31a1.88,1.88,0,0,0-.22-1,.78.78,0,0,0-.68-.33,1.37,1.37,0,0,0-.47.09,1.67,1.67,0,0,0-.44.25,1.93,1.93,0,0,0-.37.38,1.81,1.81,0,0,0-.25.48v3H132v-5.1h1v1a2.07,2.07,0,0,1,.85-.82A2.58,2.58,0,0,1,135,42a1.51,1.51,0,0,1,.75.17,1.22,1.22,0,0,1,.46.45,2.08,2.08,0,0,1,.24.67,4.46,4.46,0,0,1,.07.79Z"/><path class="cls-2" d="M139.82,47.22a2.13,2.13,0,0,1-.94-.21,2.18,2.18,0,0,1-.74-.57,2.7,2.7,0,0,1-.48-.83,2.86,2.86,0,0,1-.17-1,3,3,0,0,1,.17-1,2.6,2.6,0,0,1,.49-.84,2.37,2.37,0,0,1,.75-.57,2.18,2.18,0,0,1,1-.21,2,2,0,0,1,1.07.29,2.36,2.36,0,0,1,.77.76v-1h.95v5a2.33,2.33,0,0,1-.2,1,2.11,2.11,0,0,1-.57.73,2.58,2.58,0,0,1-.86.45,3.63,3.63,0,0,1-1.08.16,3.07,3.07,0,0,1-1.41-.29,2.71,2.71,0,0,1-.95-.81l.61-.56a1.89,1.89,0,0,0,.76.62,2.34,2.34,0,0,0,1,.22,2.32,2.32,0,0,0,.63-.09,1.5,1.5,0,0,0,.52-.27,1.24,1.24,0,0,0,.36-.47,1.6,1.6,0,0,0,.13-.67v-.78a1.86,1.86,0,0,1-.75.72A2.08,2.08,0,0,1,139.82,47.22Zm.35-.87a1.34,1.34,0,0,0,.47-.08,1.61,1.61,0,0,0,.42-.23,1.54,1.54,0,0,0,.33-.32,1.14,1.14,0,0,0,.2-.38V44a1.89,1.89,0,0,0-.25-.45,1.77,1.77,0,0,0-.36-.35,1.81,1.81,0,0,0-.42-.23,1.34,1.34,0,0,0-.45-.08,1.32,1.32,0,0,0-.63.15,1.56,1.56,0,0,0-.47.4,1.91,1.91,0,0,0-.31.56,2,2,0,0,0-.11.64,1.74,1.74,0,0,0,.46,1.19,1.7,1.7,0,0,0,.51.37A1.42,1.42,0,0,0,140.17,46.35Z"/><path class="cls-2" d="M76.58,33.8V10.21H87.22a6.84,6.84,0,0,1,3.07.7,8.29,8.29,0,0,1,2.45,1.83,8.71,8.71,0,0,1,1.61,2.56,7.68,7.68,0,0,1,.58,2.89,8.38,8.38,0,0,1-.26,2.11,8.18,8.18,0,0,1-.77,1.91,7.07,7.07,0,0,1-1.21,1.61A7.19,7.19,0,0,1,91.07,25l5.19,8.77H90.11L85.59,26.2H82V33.8ZM82,21.45h5a2,2,0,0,0,1.66-.92,3.7,3.7,0,0,0,.7-2.34,3.3,3.3,0,0,0-.8-2.33A2.32,2.32,0,0,0,86.85,15H82Z"/><path class="cls-2" d="M97.46,21.81a12,12,0,0,1,.8-4.24,11.48,11.48,0,0,1,2.33-3.77,11.66,11.66,0,0,1,3.73-2.69,11.54,11.54,0,0,1,5-1,11.22,11.22,0,0,1,5.77,1.43,9.27,9.27,0,0,1,3.64,3.72l-4.19,2.92a4.89,4.89,0,0,0-1-1.55,5.49,5.49,0,0,0-1.35-1,5.41,5.41,0,0,0-1.49-.53,7.85,7.85,0,0,0-1.5-.15,5.66,5.66,0,0,0-2.72.63,6,6,0,0,0-1.93,1.63,6.75,6.75,0,0,0-1.13,2.26A9.12,9.12,0,0,0,103,22a8.43,8.43,0,0,0,.43,2.69A7.15,7.15,0,0,0,104.69,27a6,6,0,0,0,2,1.58,5.56,5.56,0,0,0,2.57.58,6.8,6.8,0,0,0,1.52-.18,6.06,6.06,0,0,0,1.49-.57,5.21,5.21,0,0,0,1.31-1,4.68,4.68,0,0,0,1-1.51L119,28.52a6.88,6.88,0,0,1-1.58,2.33A9.79,9.79,0,0,1,115,32.57,13.25,13.25,0,0,1,109.09,34a10.59,10.59,0,0,1-4.7-1,12,12,0,0,1-3.69-2.78,12.75,12.75,0,0,1-2.39-3.92A12.21,12.21,0,0,1,97.46,21.81Z"/><path class="cls-2" d="M127.16,20.32V33.8h-5.45V10.21H126l11,13.86V10.21h5.45V33.8H138Z"/></g></g></svg>