<svg xmlns="http://www.w3.org/2000/svg" viewBox="0 0 132.6 48.12"><defs><style>.cls-1{fill:#dc453b;}.cls-2{fill:#0a0a0a;}</style></defs><title>xivis</title><g id="Layer_2" data-name="Layer 2"><g id="Capa_1" data-name="Capa 1"><g id="_Group_" data-name="&lt;Group&gt;"><g id="_Group_2" data-name="&lt;Group&gt;"><path id="_Path_" data-name="&lt;Path&gt;" class="cls-1" d="M35.07,26.51a4.66,4.66,0,0,0-7.64-.16l-13.81,19H4.28L16.13,29.2a1.4,1.4,0,0,0-2.26-1.66L.38,45.88a1.4,1.4,0,0,0,1.13,2.23H14.33a1.4,1.4,0,0,0,1.13-.58L29.7,28a1.85,1.85,0,0,1,3,.06L44.25,45.32H31.7L28,39.09a1.4,1.4,0,1,0-2.41,1.43l4.1,6.92a1.4,1.4,0,0,0,1.21.69h16A1.4,1.4,0,0,0,48,45.94Z"/><path id="_Path_2" data-name="&lt;Path&gt;" class="cls-1" d="M11.25,19l0,0a5.45,5.45,0,0,0,4.52,2.42h.08a5.72,5.72,0,0,0,4.54-2.16L32.61,2.93h11.6l-10,13.62a1.4,1.4,0,1,0,2.26,1.66L48.11,2.36A1.4,1.4,0,0,0,47,.12H31.53l-.07,0-.06,0-.07,0-.06,0-.06,0-.06,0,0,0L31,.42l0,0-.06.05,0,0,0,.05,0,.06,0,0-12.63,17a3,3,0,0,1-2.32,1,2.68,2.68,0,0,1-2.24-1.2L4,2.8H16.58L20.27,9a1.4,1.4,0,0,0,2.41-1.43L18.58.69A1.4,1.4,0,0,0,17.38,0H1.4A1.4,1.4,0,0,0,.23,2.17Z"/></g><path id="_Compound_Path_" data-name="&lt;Compound Path&gt;" class="cls-1" d="M132.6,30.11a1.9,1.9,0,1,1-1.91-1.9A1.82,1.82,0,0,1,132.6,30.11Z"/><path id="_Compound_Path_2" data-name="&lt;Compound Path&gt;" class="cls-2" d="M71,16.1h2.87a.48.48,0,0,1,.4.74l-4.61,7,5,7.4a.48.48,0,0,1-.4.74h-3l-3.79-5.81L63.37,32H60.46a.48.48,0,0,1-.39-.75l5.09-7.39-4.72-7a.48.48,0,0,1,.39-.74h3l3.55,5.43Z"/><path id="_Path_3" data-name="&lt;Path&gt;" class="cls-2" d="M117.42,20.26c0-1.14,1-1.59,2.33-1.59a8.36,8.36,0,0,1,2.75.54A.45.45,0,0,0,123,19l1.2-1.65a.46.46,0,0,0-.19-.69,10.83,10.83,0,0,0-4-.78c-3.05,0-5.86,1.38-5.86,4.61,0,5.74,8.35,3.92,8.35,7.18,0,1.2-1.14,1.71-2.6,1.71A8.89,8.89,0,0,1,115.36,28a.45.45,0,0,0-.61.12L113.42,30a9.9,9.9,0,0,0,6.33,2.15c3.2,0,6.1-1.47,6.1-4.73C125.88,21.61,117.42,23.19,117.42,20.26Z"/><g id="_Group_3" data-name="&lt;Group&gt;"><path id="_Path_4" data-name="&lt;Path&gt;" class="cls-2" d="M82.22,10.11a2,2,0,0,1,.55,1.43,1.93,1.93,0,0,1-.55,1.41,2,2,0,0,1-2.78,0,1.93,1.93,0,0,1-.55-1.41,2,2,0,0,1,.55-1.43,2,2,0,0,1,2.78,0Z"/><path id="_Path_5" data-name="&lt;Path&gt;" class="cls-2" d="M80.85,32H79.64c-.4,0-.6-.08-.6-.6V16.7c0-.46.21-.6.6-.6h2.42c.4,0,.6.15.6.6V31.35c0,.53-.21.6-.6.6H80.85Z"/></g><g id="_Group_4" data-name="&lt;Group&gt;"><path id="_Path_6" data-name="&lt;Path&gt;" class="cls-2" d="M109.31,10.11a2,2,0,0,1,.55,1.43,1.93,1.93,0,0,1-.55,1.41,2,2,0,0,1-2.78,0,1.93,1.93,0,0,1-.55-1.41,2,2,0,0,1,.55-1.43,2,2,0,0,1,2.78,0Z"/><path id="_Path_7" data-name="&lt;Path&gt;" class="cls-2" d="M107.94,32h-1.21c-.4,0-.6-.08-.6-.6V16.7c0-.46.21-.6.6-.6h2.42c.4,0,.6.15.6.6V31.35c0,.53-.21.6-.6.6h-1.22Z"/></g><path id="_Compound_Path_3" data-name="&lt;Compound Path&gt;" class="cls-2" d="M87.08,16.1H89.8a.44.44,0,0,1,.42.3L94.5,28.16,98.7,16.4a.44.44,0,0,1,.42-.3h2.57a.53.53,0,0,1,.49.71L96.4,32h-4L86.6,16.81A.53.53,0,0,1,87.08,16.1Z"/></g></g></g></svg>