<svg xmlns="http://www.w3.org/2000/svg" xmlns:xlink="http://www.w3.org/1999/xlink" viewBox="0 0 185.2 39.53"><defs><style>.cls-1{fill:#91ebfa;}.cls-2{fill:#5aa5ff;}.cls-3{fill:#64d2fa;}.cls-4{fill:url(#Degradado_sin_nombre_3);}.cls-5{fill:url(#Degradado_sin_nombre_2);}.cls-6{fill:#0a0a0a;}</style><linearGradient id="Degradado_sin_nombre_3" x1="20.09" y1="-9637.02" x2="15.68" y2="-9631.3" gradientTransform="matrix(1, 0, 0, -1, 0, -9600.19)" gradientUnits="userSpaceOnUse"><stop offset="0" stop-color="#29abe2" stop-opacity="0"/><stop offset="1" stop-color="#28aac8" stop-opacity="0.6"/></linearGradient><linearGradient id="Degradado_sin_nombre_2" x1="4539.06" y1="-9613.95" x2="4540.9" y2="-9607.71" gradientTransform="translate(4560.95 -9600.19) rotate(180)" gradientUnits="userSpaceOnUse"><stop offset="0" stop-color="#5ab4ff" stop-opacity="0"/><stop offset="1" stop-color="#5a96be" stop-opacity="0.6"/></linearGradient></defs><title>zeppeling</title><g id="Layer_2" data-name="Layer 2"><g id="Capa_1" data-name="Capa 1"><g id="Layer_2-2" data-name="Layer 2"><g id="Layer_1-2" data-name="Layer 1-2"><polygon id="Shape" class="cls-1" points="33.84 39.53 0 39.53 5.06 31.34 33.84 31.34 33.84 39.53"/><polygon id="Shape-2" class="cls-2" points="0.77 0 33.97 0 29.18 8.15 0.77 8.15 0.77 0"/><polygon id="Shape-3" class="cls-3" points="0 39.53 18.37 8.15 29.18 8.15 10.84 39.53 0 39.53"/><polygon id="_Path_" data-name=" Path " class="cls-4" points="27.2 31.34 16.57 39.53 10.84 39.53 15.63 31.34 27.2 31.34"/><polygon id="_Path_2" data-name=" Path 2" class="cls-5" points="13.67 16.19 26.67 12.46 29.18 8.15 18.37 8.15 13.67 16.19"/><path class="cls-6" d="M48.79,28.28V26.39L58.67,12.9H48.79V11H61.08V12.9L51.27,26.39h9.81v1.89Z"/><path class="cls-6" d="M73.46,28.8a7,7,0,0,1-4.37-1.38,7.37,7.37,0,0,1-2.51-3.36,12.61,12.61,0,0,1-.72-4.35,10.88,10.88,0,0,1,1.93-6.59,6.54,6.54,0,0,1,5.65-2.63q7.74,0,7.74,9.46v.17H68.06a8.64,8.64,0,0,0,1.4,4.9,4.85,4.85,0,0,0,4.25,1.87A5.33,5.33,0,0,0,77,25.84a4.32,4.32,0,0,0,1.72-2.72h2.13a6.78,6.78,0,0,1-2.44,4.21A7.89,7.89,0,0,1,73.46,28.8ZM68.13,18.37H79A6.45,6.45,0,0,0,77.58,14a5.11,5.11,0,0,0-4.11-1.58,4.8,4.8,0,0,0-4,1.74A6.58,6.58,0,0,0,68.13,18.37Z"/><path class="cls-6" d="M87.81,34.89V11h2v2.61h.07a5.74,5.74,0,0,1,5.4-3.13,6.28,6.28,0,0,1,5.38,2.68,10.51,10.51,0,0,1,1.95,6.33,11.07,11.07,0,0,1-2,6.45,6.19,6.19,0,0,1-5.37,2.84A5.77,5.77,0,0,1,92.22,28a7.63,7.63,0,0,1-2.32-2.43h-.07v9.29Zm7.51-8a4.23,4.23,0,0,0,3.87-2.27,9.86,9.86,0,0,0,1.32-5.06,9.52,9.52,0,0,0-1.32-5,4.25,4.25,0,0,0-3.87-2.22,4.7,4.7,0,0,0-4.15,2.19,8.91,8.91,0,0,0-1.46,5.08,8.91,8.91,0,0,0,1.46,5.08,4.7,4.7,0,0,0,4.14,2.19Z"/><path class="cls-6" d="M109,34.89V11h2v2.61h.07a5.74,5.74,0,0,1,5.4-3.13,6.28,6.28,0,0,1,5.38,2.68,10.51,10.51,0,0,1,1.95,6.33,11.07,11.07,0,0,1-2,6.45,6.19,6.19,0,0,1-5.37,2.84,5.77,5.77,0,0,1-3.08-.79,7.63,7.63,0,0,1-2.32-2.43h-.05v9.29Zm7.51-8a4.23,4.23,0,0,0,3.87-2.27,9.86,9.86,0,0,0,1.34-5.06,9.52,9.52,0,0,0-1.32-5,4.25,4.25,0,0,0-3.87-2.22,4.7,4.7,0,0,0-4.15,2.19A8.91,8.91,0,0,0,111,19.65a8.91,8.91,0,0,0,1.46,5.08,4.7,4.7,0,0,0,4.13,2.18Z"/><path class="cls-6" d="M137.16,28.8a7,7,0,0,1-4.37-1.38,7.37,7.37,0,0,1-2.51-3.36,12.61,12.61,0,0,1-.72-4.35,10.88,10.88,0,0,1,1.93-6.59,6.54,6.54,0,0,1,5.65-2.63q7.74,0,7.74,9.46v.17H131.76a8.64,8.64,0,0,0,1.4,4.9,4.85,4.85,0,0,0,4.25,1.87,5.33,5.33,0,0,0,3.3-1.07,4.32,4.32,0,0,0,1.72-2.72h2.13a6.78,6.78,0,0,1-2.44,4.21A7.9,7.9,0,0,1,137.16,28.8Zm-5.33-10.43h10.84a6.45,6.45,0,0,0-1.4-4.39,5.11,5.11,0,0,0-4.11-1.58,4.8,4.8,0,0,0-4,1.74A6.58,6.58,0,0,0,131.83,18.37Z"/><path class="cls-6" d="M151.81,28.28V3.44h2V28.28Z"/><path class="cls-6" d="M161.29,6.36v-3H164v3Zm.52,21.92V11h2V28.28Z"/><path class="cls-6" d="M171.85,28.28V11h2v2.55l.07.07a5.48,5.48,0,0,1,5.3-3.13,5.25,5.25,0,0,1,4.44,2,8,8,0,0,1,1.51,5V28.28h-2V17.13A4.93,4.93,0,0,0,182,13.69a4.61,4.61,0,0,0-6.85.44,7,7,0,0,0-1.27,4.2v9.95Z"/></g></g></g></g></svg>