<?xml version="1.0" encoding="UTF-8"?>
<svg width="21px" height="24px" viewBox="0 0 21 24" version="1.1" xmlns="http://www.w3.org/2000/svg" xmlns:xlink="http://www.w3.org/1999/xlink">
    <!-- Generator: sketchtool 56.3 (101010) - https://sketch.com -->
    <title>A20FF167-8847-45CE-8B4E-BE24F146D772@1x</title>
    <desc>Created with sketchtool.</desc>
    <g id="Landing2" stroke="none" stroke-width="1" fill="none" fill-rule="evenodd" fill-opacity="0.731431159">
        <g id="Search" transform="translate(-103.000000, -899.000000)" fill="#1E1346" fill-rule="nonzero">
            <g id="icon/PIN" transform="translate(102.000000, 899.000000)">
                <path d="M12.0738986,23.172449 C11.7512403,23.4758503 11.2487597,23.4758503 10.9261014,23.172449 C4.69493386,17.3131726 1.55729167,12.7639504 1.55729167,9.36 C1.55729167,4.24075944 6.02349175,0.12 11.5,0.12 C16.9765082,0.12 21.4427083,4.24075944 21.4427083,9.36 C21.4427083,12.7639504 18.3050661,17.3131726 12.0738986,23.172449 Z M19.765625,9.36 C19.765625,5.20085677 16.0796766,1.8 11.5,1.8 C6.92032343,1.8 3.234375,5.20085677 3.234375,9.36 C3.234375,12.0500469 5.97628304,16.1140759 11.5,21.4030521 C17.023717,16.1140759 19.765625,12.0500469 19.765625,9.36 Z" id="Oval"></path>
            </g>
        </g>
    </g>
</svg>