<?xml version="1.0" encoding="UTF-8"?>
<svg width="22px" height="23px" viewBox="0 0 22 23" version="1.1" xmlns="http://www.w3.org/2000/svg" xmlns:xlink="http://www.w3.org/1999/xlink">
    <!-- Generator: sketchtool 56.3 (101010) - https://sketch.com -->
    <title>504AE98A-A0EB-474E-A5CE-58969DECE713@1x</title>
    <desc>Created with sketchtool.</desc>
    <g id="Landing2" stroke="none" stroke-width="1" fill="none" fill-rule="evenodd" fill-opacity="0.731431159" opacity="0.303501674">
        <g id="Event-detail-past" transform="translate(-992.000000, -286.000000)" fill="#1E1346">
            <g id="atom/event-info" transform="translate(991.000000, 284.000000)">
                <g id="atom/fecha">
                    <g id="icon/calendar-copy-5" transform="translate(1.000000, 2.000000)">
                        <g id="Group-8">
                            <path d="M16.9223041,6.63526538 L7.58319733,6.63526538 C7.29587137,8.42503202 6.49338001,9.90798716 5.2123898,9.90798716 C4.79878978,9.90798716 4.4634536,9.57171777 4.4634536,9.15696674 C4.4634536,8.74221571 4.79878978,8.40594631 5.2123898,8.40594631 C5.39176082,8.40594631 5.83406069,7.78879045 6.06272994,6.63526538 L1.59879151,6.63526538 L1.59879151,21.2093797 L20.4560678,21.2093797 L20.4560678,6.63526538 L18.4427715,6.63526538 C18.1554455,8.42503202 17.3529542,9.90798716 16.071964,9.90798716 C15.6583639,9.90798716 15.3230278,9.57171777 15.3230278,9.15696674 C15.3230278,8.74221571 15.6583639,8.40594631 16.071964,8.40594631 C16.251335,8.40594631 16.6936348,7.78879045 16.9223041,6.63526538 Z M18.5621426,5.13322454 L21.2050046,5.13322454 C21.6186046,5.13322454 21.9539408,5.46949393 21.9539408,5.88424494 L21.9539408,21.9603999 C21.9539408,22.3751509 21.6186046,22.7114203 21.2050046,22.7114203 L0.849855332,22.7114203 C0.436255325,22.7114203 0.100919148,22.3751509 0.100919148,21.9603999 L0.100919148,5.88424494 C0.100919148,5.46949393 0.436255325,5.13322454 0.849855332,5.13322454 L2.72262204,5.13322454 C2.72232612,5.12454925 2.72217695,5.11583663 2.72217695,5.10708909 C2.72217695,2.72128496 3.57764932,0.305815517 5.2123898,0.305815517 C6.84713028,0.305815517 7.70260264,2.72128496 7.70260264,5.10708909 C7.70260264,5.11580056 7.70259124,5.12451241 7.70256843,5.13322454 L13.5821962,5.13322454 C13.5819003,5.12454925 13.5817511,5.11583663 13.5817511,5.10708909 C13.5817511,2.72128496 14.4372235,0.305815517 16.071964,0.305815517 C17.7067044,0.305815517 18.5621768,2.72128496 18.5621768,5.10708909 C18.5621768,5.11580056 18.5621654,5.12451241 18.5621426,5.13322454 Z M17.0642669,5.13322458 C17.0642919,5.12452888 17.0643044,5.11581705 17.0643044,5.10708909 C17.0643044,2.97794619 16.3189257,1.80785637 16.071964,1.80785637 C15.8250022,1.80785637 15.0796235,2.97794619 15.0796235,5.10708909 C15.0796235,5.11583663 15.0794743,5.12454925 15.0791784,5.13322454 L17.0642723,5.13322454 Z M4.21960425,5.13322454 L6.20469814,5.13322454 C6.20471773,5.12452888 6.20473025,5.11581705 6.20473025,5.10708909 C6.20473025,2.97794619 5.45935151,1.80785637 5.2123898,1.80785637 C4.96542809,1.80785637 4.22004934,2.97794619 4.22004934,5.10708909 C4.22004934,5.11583663 4.21990017,5.12454925 4.21960425,5.13322454 Z" id="Combined-Shape"></path>
                        </g>
                    </g>
                </g>
            </g>
        </g>
    </g>
</svg>
