<?xml version="1.0" encoding="UTF-8"?>
<svg width="21px" height="24px" viewBox="0 0 21 24" version="1.1" xmlns="http://www.w3.org/2000/svg" xmlns:xlink="http://www.w3.org/1999/xlink">
    <!-- Generator: sketchtool 56.3 (101010) - https://sketch.com -->
    <title>8AB835C8-7098-49B0-81D9-34FBDF45BF8A@1x</title>
    <desc>Created with sketchtool.</desc>
    <g id="Landing2" stroke="none" stroke-width="1" fill="none" fill-rule="evenodd" fill-opacity="0.731431159">
        <g id="Event-detail" transform="translate(-992.000000, -365.000000)" fill="#ADADAD" fill-rule="nonzero">
            <g id="atom/event-info" transform="translate(991.000000, 284.000000)">
                <g id="atom/lugar" transform="translate(0.000000, 78.000000)">
                    <g id="icon/calendar-copy-6" transform="translate(0.000000, 3.000000)">
                        <path d="M12.3307901,23.6453561 C12.0012666,23.9549493 11.4880951,23.9549493 11.1585716,23.6453561 C4.79482607,17.6665026 1.59042553,13.0244391 1.59042553,9.55102041 C1.59042553,4.32730555 6.15165115,0.12244898 11.7446809,0.12244898 C17.3377106,0.12244898 21.8989362,4.32730555 21.8989362,9.55102041 C21.8989362,13.0244391 18.6945356,17.6665026 12.3307901,23.6453561 Z M20.1861702,9.55102027 C20.1861702,5.30699664 16.4217973,1.83673469 11.7446809,1.83673469 C7.06756435,1.83673469 3.30319149,5.30699664 3.30319149,9.55102027 C3.30319149,12.295966 6.103438,16.4429343 11.7446809,21.8398487 C17.3859237,16.4429343 20.1861702,12.295966 20.1861702,9.55102027 Z" id="Oval"></path>
                    </g>
                </g>
            </g>
        </g>
    </g>
</svg>
