<?xml version="1.0" encoding="UTF-8"?>
<svg width="19px" height="19px" viewBox="0 0 19 19" version="1.1" xmlns="http://www.w3.org/2000/svg" xmlns:xlink="http://www.w3.org/1999/xlink">
    <!-- Generator: sketchtool 56.3 (101010) - https://sketch.com -->
    <title>5D272006-5D64-4B55-A0A6-401FA9945632@1x</title>
    <desc>Created with sketchtool.</desc>
    <defs>
        <polygon id="path-1" points="0 0 18.9999554 0 18.9999554 18.9999702 0 18.9999702"></polygon>
    </defs>
    <g id="Landing2" stroke="none" stroke-width="1" fill="none" fill-rule="evenodd">
        <g id="Event-detail" transform="translate(-203.000000, -555.000000)">
            <g id="atom/event-level" transform="translate(203.000000, 552.000000)">
                <g id="atom/lenguage-esp" transform="translate(0.000000, 3.000000)">
                    <g id="icon/coment-copy-3">
                        <g id="Group-3">
                            <mask id="mask-2" fill="white">
                                <use xlink:href="#path-1"></use>
                            </mask>
                            <g id="Clip-2"></g>
                            <path d="M10.9501421,15.0556004 C11.1130413,15.0556004 11.2699018,15.1242697 11.3818397,15.2467973 C12.3580568,16.3143878 13.5503437,17.6535139 15.759646,17.9527265 C15.3410569,17.3035847 14.4680879,16.0509311 14.0051654,14.6536083 C13.9159095,14.3840177 14.0259328,14.0876476 14.2682196,13.9450728 C16.4601421,12.6554665 17.8216615,10.4362066 17.8216615,8.15351357 C17.8216615,6.30856863 16.9734367,4.57463157 15.4328165,3.27096223 C13.8521344,1.93348188 11.7189793,1.19682043 9.42631258,1.19682043 C4.80121173,1.19682043 1.17825043,4.25252919 1.17825043,8.15351357 C1.17825043,12.0544979 4.80121173,15.1102067 9.42631258,15.1102067 C9.79953739,15.1102067 10.5751498,15.089561 10.8935839,15.0584429 C10.9124366,15.056498 10.9314366,15.0556004 10.9501421,15.0556004 M16.7910953,18.9999701 C16.785793,18.9999701 16.7804907,18.9999701 16.7751884,18.9999701 C13.5627155,18.9139465 11.989545,17.6331669 10.7127155,16.2711512 C10.2892659,16.2950882 9.70866124,16.3070567 9.4263124,16.3070567 C4.14063023,16.3070567 -4.41860476e-05,12.7256315 -4.41860476e-05,8.15351339 C-4.41860476e-05,3.58154488 4.14063023,-2.99212595e-05 9.4263124,-2.99212595e-05 C11.9941109,-2.99212595e-05 14.3950333,0.835072441 16.1870721,2.35148189 C18.0009093,3.88659213 18.9999558,5.94697008 18.9999558,8.15351339 C18.9999558,10.7108835 17.5849713,13.1861197 15.276545,14.7194346 C16.1881031,17.246285 17.0981884,17.8906394 17.107762,17.897222 C17.3362039,18.0380016 17.4370953,18.3135764 17.3616845,18.5740409 C17.2878938,18.8291197 17.0519403,18.9999701 16.7910953,18.9999701" id="Fill-1" fill="#5555FE" mask="url(#mask-2)"></path>
                        </g>
                    </g>
                </g>
            </g>
        </g>
    </g>
</svg>