<?xml version="1.0" encoding="UTF-8"?>
<svg width="24px" height="25px" viewBox="0 0 24 25" version="1.1" xmlns="http://www.w3.org/2000/svg" xmlns:xlink="http://www.w3.org/1999/xlink">
    <!-- Generator: sketchtool 56.3 (101010) - https://sketch.com -->
    <title>BE40162F-26A6-4168-9CBC-ABA1A1C7295E</title>
    <desc>Created with sketchtool.</desc>
    <g id="Landing2" stroke="none" stroke-width="1" fill="none" fill-rule="evenodd">
        <g id="Event-detail" transform="translate(-991.000000, -326.000000)" fill="#5A5277" fill-rule="nonzero">
            <g id="atom/event-info" transform="translate(991.000000, 284.000000)">
                <g id="atom/hora" transform="translate(0.000000, 39.000000)">
                    <g id="icon/clock-copy" transform="translate(0.000000, 3.000000)">
                        <g id="Group">
                            <path d="M12,24.75 C5.51065419,24.75 0.25,19.4893458 0.25,13 C0.25,6.51065419 5.51065419,1.25 12,1.25 C18.4893458,1.25 23.75,6.51065419 23.75,13 C23.75,19.4893458 18.4893458,24.75 12,24.75 Z M12,23.25 C17.6609187,23.25 22.25,18.6609187 22.25,13 C22.25,7.33908131 17.6609187,2.75 12,2.75 C6.33908131,2.75 1.75,7.33908131 1.75,13 C1.75,18.6609187 6.33908131,23.25 12,23.25 Z" id="Oval"></path>
                            <path d="M11.25,5.29404546 C11.25,4.87983189 11.5857864,4.54404545 12,4.54404545 C12.4142136,4.54404545 12.75,4.87983189 12.75,5.29404546 L12.75,13.8843822 C12.75,14.2985958 12.4142136,14.6343822 12,14.6343822 C11.5857864,14.6343822 11.25,14.2985958 11.25,13.8843822 L11.25,5.29404546 Z" id="Line-4"></path>
                            <path d="M11.4696699,14.4147123 C11.1767767,14.1218191 11.1767767,13.6469454 11.4696699,13.3540522 C11.7625631,13.0611589 12.2374369,13.0611589 12.5303301,13.3540522 L16.6354479,17.45917 C16.9283411,17.7520632 16.9283411,18.2269369 16.6354479,18.5198301 C16.3425547,18.8127234 15.8676809,18.8127234 15.5747877,18.5198301 L11.4696699,14.4147123 Z" id="Line-5"></path>
                            <rect id="Rectangle" x="10" y="0" width="4" height="2"></rect>
                        </g>
                    </g>
                </g>
            </g>
        </g>
    </g>
</svg>