<?xml version="1.0" encoding="UTF-8"?>
<svg width="17px" height="17px" viewBox="0 0 17 17" version="1.1" xmlns="http://www.w3.org/2000/svg" xmlns:xlink="http://www.w3.org/1999/xlink">
    <!-- Generator: sketchtool 54.1 (76490) - https://sketchapp.com -->
    <title>FAEF8EC3-53C7-4227-BBD7-2A724838208A@1x</title>
    <desc>Created with sketchtool.</desc>
    <g id="Landing" stroke="none" stroke-width="1" fill="none" fill-rule="evenodd">
        <g id="Event-photos" transform="translate(-1162.000000, -265.000000)" fill="#5555FE" fill-rule="nonzero">
            <g id="cruz" transform="translate(1155.000000, 258.000000)">
                <path d="M16.8880597,14.0849615 L25.0352103,14.0849615 C25.8018145,14.0849615 26.42327,14.706417 26.42327,15.4730212 C26.42327,16.2396255 25.8018145,16.8610809 25.0352103,16.8610809 L16.8880597,16.8610809 L16.8880597,25.0082315 C16.8880597,25.7748357 16.2666042,26.3962912 15.5,26.3962912 C14.7333958,26.3962912 14.1119403,25.7748357 14.1119403,25.0082315 L14.1119403,16.8610809 L5.96478972,16.8610809 C5.1981855,16.8610809 4.57673,16.2396255 4.57673,15.4730212 C4.57673,14.706417 5.1981855,14.0849615 5.96478972,14.0849615 L14.1119403,14.0849615 L14.1119403,5.93781096 C14.1119403,5.17120675 14.7333958,4.54975124 15.5,4.54975124 C16.2666042,4.54975124 16.8880597,5.17120675 16.8880597,5.93781096 L16.8880597,14.0849615 Z" id="Combined-Shape" transform="translate(15.500000, 15.473021) rotate(-315.000000) translate(-15.500000, -15.473021) "></path>
            </g>
        </g>
    </g>
</svg>