<?xml version="1.0" encoding="UTF-8"?>
<svg width="19px" height="19px" viewBox="0 0 19 19" version="1.1" xmlns="http://www.w3.org/2000/svg" xmlns:xlink="http://www.w3.org/1999/xlink">
    <!-- Generator: sketchtool 56.3 (101010) - https://sketch.com -->
    <title>3F6AAB8A-3E1B-43D1-B623-71BD1CC8C9E4@1x</title>
    <desc>Created with sketchtool.</desc>
    <g id="Landing2" stroke="none" stroke-width="1" fill="none" fill-rule="evenodd">
        <g id="Event-detail-past" transform="translate(-993.000000, -509.000000)" fill="#FF6D66" fill-rule="nonzero">
            <g id="atom/download" transform="translate(993.000000, 509.000000)">
                <g id="icon/coment">
                    <path d="M10.1857917,12.5950434 C10.1857917,12.9356392 9.91041122,13.2117467 9.57071222,13.2117467 C9.23101321,13.2117467 8.95563276,12.9356392 8.95563276,12.5950434 L8.95563276,1.12933246 C8.95563276,0.788736653 9.23101321,0.5126292 9.57071222,0.5126292 C9.91041122,0.5126292 10.1857917,0.788736653 10.1857917,1.12933246 L10.1857917,12.5950434 Z" id="Line-2"></path>
                    <path d="M17.5436385,17.485841 L18.7737974,17.485841 L17.5436385,18.7192475 L17.5436385,17.485841 Z M17.5436392,17.4858412 L17.5436392,13.3744862 L18.7737981,13.3744862 L18.7737981,18.7192477 L0.32141369,18.7192477 L0.32141369,13.3744862 L1.55157265,13.3744862 L1.55157265,17.4858412 L17.5436392,17.4858412 Z M1.55157261,17.485841 L1.55157261,18.7192475 L0.32141369,17.485841 L1.55157261,17.485841 Z M1.55157261,17.485841 L1.55157261,18.7192475 L0.32141369,17.485841 L1.55157261,17.485841 Z M1.55157265,17.4858412 L17.5436392,17.4858412 L17.5436392,13.3744862 L18.7737981,13.3744862 L18.7737981,18.7192477 L0.32141369,18.7192477 L0.32141369,13.3744862 L1.55157265,13.3744862 L1.55157265,17.4858412 Z M17.5436385,17.485841 L18.7737974,17.485841 L17.5436385,18.7192475 L17.5436385,17.485841 Z" id="Rectangle"></path>
                    <path d="M15.5161261,7.94911469 C15.7657399,7.71809728 16.1548754,7.73370683 16.3852845,7.98397961 C16.6156936,8.23425238 16.6001252,8.62441517 16.3505114,8.85543258 L9.71101532,15.0002817 L2.78453214,8.86443319 C2.52996052,8.63892006 2.50592261,8.24918967 2.73084197,7.99394599 C2.95576132,7.73870232 3.34446556,7.71460095 3.59903718,7.94011408 L9.69296815,13.3384434 L15.5161261,7.94911469 Z" id="Path-2"></path>
                </g>
            </g>
        </g>
    </g>
</svg>