<?xml version="1.0" encoding="UTF-8"?>
<svg width="47px" height="50px" viewBox="0 0 47 50" version="1.1" xmlns="http://www.w3.org/2000/svg" xmlns:xlink="http://www.w3.org/1999/xlink">
    <!-- Generator: sketchtool 56.3 (101010) - https://sketch.com -->
    <title>014A9A14-DB37-4B62-A7F6-E021F3B64B46@1x</title>
    <desc>Created with sketchtool.</desc>
    <g id="Landing2" stroke="none" stroke-width="1" fill="none" fill-rule="evenodd">
        <g id="Event-detail-past" transform="translate(-253.000000, -1144.000000)" fill="#5555FE" fill-rule="nonzero">
            <g id="icon/search" transform="translate(253.000000, 1144.000000)">
                <g id="Group" transform="translate(0.380952, 0.409091)">
                    <path d="M18.6507937,37.7424242 C8.35024475,37.7424242 0,29.2934948 0,18.8712121 C0,8.44892946 8.35024475,0 18.6507937,0 C28.9513426,0 37.3015873,8.44892946 37.3015873,18.8712121 C37.3015873,29.2934948 28.9513426,37.7424242 18.6507937,37.7424242 Z M18.6507937,35.3333333 C27.6363789,35.3333333 34.9206349,27.9629906 34.9206349,18.8712121 C34.9206349,9.77943363 27.6363789,2.40909091 18.6507937,2.40909091 C9.66520844,2.40909091 2.38095238,9.77943363 2.38095238,18.8712121 C2.38095238,27.9629906 9.66520844,35.3333333 18.6507937,35.3333333 Z" id="Oval"></path>
                    <path d="M29.2557151,35.3536305 C28.3433331,34.4304658 28.3433331,32.93372 29.2557151,32.0105553 C30.1680971,31.0873906 31.6473606,31.0873906 32.5597426,32.0105553 L45.3474595,44.9493998 C46.2598415,45.8725645 46.2598415,47.3693103 45.3474595,48.292475 C44.4350775,49.2156397 42.955814,49.2156397 42.043432,48.292475 L29.2557151,35.3536305 Z" id="Line-5"></path>
                </g>
            </g>
        </g>
    </g>
</svg>